<?xml version="1.0" encoding="UTF-8"?><svg id="a" xmlns="http://www.w3.org/2000/svg" viewBox="0 0 45.91 33.08"><defs><style>.b{fill:#c3bfbf;}.c{fill:#6dac46;}.d{fill:#599642;}.e{fill:#231f20;font-family:Roboto-Medium, Roboto;font-size:10px;letter-spacing:.03em;}</style></defs><g><path class="d" d="M22.88,.06l.62,1.17c.14,.22,.29,.41,.47,.59,.52,.52,1.01,1.07,1.46,1.65,1.06,1.39,1.77,2.93,2.28,4.59,.31,1.02,.47,2.06,.48,3.12,.05,3.15-1.03,5.86-3.21,8.12-.35,.36-.74,.68-1.15,.98-.22,0-.32-.17-.41-.32-.16-.28-.27-.59-.32-.92-.08-.38-.13-.76-.1-1.16v-.18S22.81,.15,22.88,.06h0Z"/><path class="c" d="M22.88,.03c-.03-.05-.05-.01-.08,.01,.01,.26-.08,.48-.22,.7-.15,.22-.36,.38-.56,.56-1.13,.98-2.02,2.16-2.73,3.49-.95,1.78-1.44,3.69-1.58,5.7-.06,.72,.23,3.28,.46,4.02,.62,1.96,1.74,3.6,3.19,5.02,.36,.34,.74,.66,1.13,.97,.11,0,.13-.1,.15-.18,.05-.16,.09-.33,.11-.5l.26-1.91L22.88,.03Z"/><path class="b" d="M23.51,21.05c.03-.29,.17-.53,.32-.78-.15-.06-.27-.19-.36-.33-.08-.13-.14-.27-.19-.42-.18-.53-.22-1.09-.27-1.64v-.33c-.06,.05-.08,.48-.08,.55-.04,.58-.11,1.15-.23,1.72-.04,.23-.06,.46-.2,.66,0,.03,0,.05,.01,.09,.23,.67,.29,1.36,.33,2.06v.26c0,.31-.01,.24,.24,.34,.1,.04,.22,.05,.32,.13,.08,0,.09-.06,.09-.11l-.04-.42v-1.17c-.01-.2,.03-.41,.05-.6h0Z"/></g><text class="e" transform="translate(0 30.37)"><tspan x="0" y="0">mongoDB</tspan></text></svg>