<?xml version="1.0" encoding="UTF-8"?><svg id="a" xmlns="http://www.w3.org/2000/svg" viewBox="0 0 19.5 24.05"><defs><style>.b{fill:#7152a2;font-family:Roboto-Medium, Roboto;font-size:6.7px;letter-spacing:.03em;}.c{fill:#7253a2;}</style></defs><text class="b" transform="translate(0 22.23)"><tspan x="0" y="0">Redux</tspan></text><path class="c" d="M12.92,10.89c.61-.06,1.07-.59,1.04-1.21-.02-.63-.54-1.13-1.17-1.13h-.04c-.65,.02-1.15,.56-1.13,1.21,.02,.31,.15,.59,.33,.77-.71,1.4-1.8,2.42-3.43,3.28-1.11,.59-2.26,.79-3.41,.65-.94-.13-1.67-.54-2.13-1.23-.67-1.02-.73-2.13-.17-3.24,.4-.79,1.02-1.38,1.42-1.67-.08-.27-.21-.73-.27-1.07-3.03,2.19-2.72,5.16-1.8,6.56,.69,1.04,2.09,1.69,3.64,1.69,.42,0,.84-.04,1.25-.15,2.67-.52,4.7-2.11,5.85-4.47h0Zm3.68-2.59c-1.59-1.86-3.93-2.88-6.6-2.88h-.33c-.19-.38-.59-.63-1.02-.63h-.04c-.65,.02-1.15,.56-1.13,1.21,.02,.63,.54,1.13,1.17,1.13h.04c.46-.02,.86-.31,1.02-.71h.38c1.59,0,3.09,.46,4.45,1.36,1.04,.69,1.8,1.59,2.21,2.67,.36,.88,.33,1.73-.04,2.47-.58,1.11-1.57,1.71-2.86,1.71-.84,0-1.63-.25-2.05-.44-.23,.21-.65,.54-.94,.75,.9,.42,1.82,.65,2.7,.65,2.01,0,3.49-1.11,4.05-2.21,.61-1.21,.56-3.3-1-5.08h0Zm-10.61,2.95c.02,.63,.54,1.13,1.17,1.13h.04c.65-.02,1.15-.56,1.13-1.21-.02-.63-.54-1.13-1.17-1.13h-.04s-.1,0-.15,.02c-.86-1.42-1.21-2.97-1.09-4.64,.08-1.25,.5-2.34,1.23-3.24,.61-.77,1.78-1.15,2.57-1.17,2.21-.04,3.15,2.72,3.22,3.82,.27,.06,.73,.21,1.04,.31-.25-3.38-2.34-5.14-4.35-5.14-1.88,0-3.61,1.36-4.3,3.36-.96,2.67-.33,5.24,.84,7.27-.1,.15-.17,.38-.15,.61h0Z"/></svg>