<?xml version="1.0" encoding="UTF-8"?><svg xmlns="http://www.w3.org/2000/svg" xmlns:xlink="http://www.w3.org/1999/xlink" viewBox="0 0 262.6 25.57"><defs><style>.d{fill:url(#c);fill-rule:evenodd;}.e{letter-spacing:.02em;}.f{font-size:6.93px;letter-spacing:.02em;}.f,.g,.h{font-family:Roboto-Medium, Roboto;}.f,.i{fill:#9a4350;}.g{fill:#7152a2;font-size:6.7px;letter-spacing:.03em;}.j{fill:#ebebeb;}.k{fill:#f1dc4f;}.l{fill:#fff;}.m{fill:#f1672a;}.n{fill:#333431;}.o{fill:#cf659b;}.p{fill:#e44f26;}.q{fill:#2479bf;}.r{fill:#1673b6;}.s{fill:#34a9db;}.t{fill:#7253a2;}.u{fill:#70cff0;}.v{letter-spacing:-.06em;}.h{fill:#52a5b3;font-size:7.47px;}</style><linearGradient id="c" x1="51.3" y1="240.6" x2="78.53" y2="195.23" gradientTransform="translate(0 226.05) scale(1 -1)" gradientUnits="userSpaceOnUse"><stop offset="0" stop-color="#2683af"/><stop offset="1" stop-color="#77c9b3"/></linearGradient></defs><g id="a"><path class="o" d="M114.73,14.47c-1.06,0-1.98,.26-2.75,.64-.28-.56-.57-1.06-.62-1.42-.05-.43-.12-.69-.05-1.2,.07-.51,.36-1.23,.36-1.29,0-.05-.07-.31-.68-.32s-1.14,.12-1.2,.28-.18,.53-.26,.91c-.11,.56-1.22,2.53-1.86,3.57-.21-.4-.39-.76-.42-1.04-.05-.43-.12-.69-.05-1.2,.07-.51,.36-1.23,.36-1.29,0-.05-.07-.31-.68-.32-.61,0-1.14,.12-1.2,.28s-.12,.54-.26,.91c-.12,.37-1.61,3.67-1.99,4.53-.2,.44-.37,.79-.49,1.03-.12,.24,0,.02-.02,.04-.11,.2-.17,.31-.17,.31h0c-.08,.15-.17,.3-.21,.3-.03,0-.09-.4,.01-.94,.22-1.15,.75-2.93,.75-3,0-.03,.1-.34-.34-.5-.43-.16-.59,.11-.62,.11s-.07,.09-.07,.09c0,0,.48-2.01-.92-2.01-.88,0-2.09,.96-2.69,1.83-.38,.21-1.19,.65-2.04,1.12-.33,.18-.66,.37-.98,.54l-.07-.07c-1.7-1.81-4.84-3.09-4.71-5.52,.05-.88,.36-3.22,6.03-6.04,4.65-2.31,8.37-1.68,9.01-.27,.92,2.02-1.99,5.77-6.82,6.31-1.84,.21-2.81-.5-3.05-.77-.26-.28-.29-.29-.39-.24-.15,.08-.06,.33,0,.48,.14,.37,.74,1.04,1.74,1.37,.88,.29,3.04,.45,5.65-.56,2.93-1.13,5.21-4.28,4.54-6.91-.68-2.68-5.12-3.55-9.32-2.06-2.5,.89-5.2,2.28-7.15,4.1-2.31,2.16-2.68,4.05-2.53,4.83,.54,2.79,4.39,4.62,5.93,5.96-.08,.04-.15,.08-.21,.12-.77,.38-3.71,1.92-4.44,3.54-.83,1.84,.13,3.16,.77,3.34,1.98,.55,4.01-.44,5.11-2.07,1.09-1.63,.96-3.75,.46-4.72l-.02-.04,.61-.36c.39-.23,.78-.45,1.12-.63-.19,.52-.33,1.13-.4,2.02-.08,1.04,.34,2.4,.91,2.93,.25,.23,.55,.24,.73,.24,.65,0,.95-.54,1.28-1.19,.4-.79,.76-1.7,.76-1.7,0,0-.45,2.47,.77,2.47,.45,0,.89-.58,1.09-.87h0s.01-.01,.04-.05c.02-.04,.05-.07,.07-.11h0c.18-.32,.58-1.03,1.17-2.2,.77-1.51,1.5-3.39,1.5-3.39,0,0,.07,.46,.29,1.22,.13,.45,.42,.94,.63,1.42-.18,.25-.28,.39-.28,.39h0c-.14,.2-.3,.4-.47,.6-.61,.72-1.33,1.55-1.42,1.79-.11,.28-.09,.49,.13,.65,.16,.12,.45,.14,.75,.12,.55-.04,.93-.17,1.12-.26,.3-.11,.63-.27,.96-.5,.59-.44,.96-1.06,.92-1.89-.02-.46-.17-.91-.35-1.34,.05-.08,.11-.15,.16-.24,.94-1.37,1.66-2.88,1.66-2.88,0,0,.07,.46,.29,1.22,.11,.39,.34,.81,.54,1.22-.88,.72-1.43,1.55-1.62,2.09-.35,1.01-.08,1.47,.44,1.57,.23,.05,.56-.06,.81-.17,.31-.1,.68-.27,1.03-.53,.59-.44,1.16-1.05,1.13-1.87-.02-.38-.12-.75-.26-1.11,.75-.31,1.71-.49,2.94-.34,2.64,.31,3.16,1.96,3.06,2.65-.1,.69-.65,1.07-.84,1.19-.18,.11-.24,.15-.23,.24,.02,.12,.11,.12,.27,.09,.22-.04,1.39-.56,1.44-1.83,.07-1.63-1.48-3.41-4.22-3.39h0Zm-20.36,6.86c-.87,.96-2.1,1.32-2.62,1.01-.56-.33-.34-1.73,.73-2.75,.65-.62,1.5-1.19,2.06-1.54,.12-.08,.31-.19,.54-.33,.04-.02,.06-.04,.06-.04,.04-.02,.09-.05,.14-.08,.4,1.45,.02,2.72-.9,3.72h0Zm6.38-4.34c-.3,.74-.94,2.65-1.33,2.54-.33-.09-.53-1.53-.07-2.95,.24-.72,.74-1.57,1.04-1.9,.48-.53,1-.71,1.13-.49,.15,.28-.59,2.35-.78,2.81Zm5.26,2.52c-.13,.07-.25,.11-.3,.08-.04-.02,.05-.11,.05-.11,0,0,.66-.71,.92-1.03,.15-.19,.33-.41,.52-.66v.07c0,.85-.82,1.42-1.19,1.66h0Zm4.06-.93c-.09-.07-.08-.29,.24-.98,.12-.27,.41-.73,.9-1.16,.06,.18,.09,.35,.09,.51,0,1.07-.77,1.47-1.23,1.63Z"/></g><g id="b"><g><path class="k" d="M129.54,1.45h19.76c.81,0,1.46,.65,1.46,1.46V22.66c0,.81-.65,1.46-1.46,1.46h-19.76c-.81,0-1.46-.65-1.46-1.46V2.91c0-.81,.65-1.46,1.46-1.46Z"/><path class="n" d="M148.9,18.71c-.17-1.03-.84-1.9-2.84-2.71-.69-.32-1.47-.55-1.7-1.07-.08-.31-.09-.48-.04-.66,.15-.6,.87-.79,1.44-.62,.37,.12,.71,.41,.92,.86,.98-.63,.98-.63,1.66-1.06-.25-.39-.38-.57-.55-.73-.59-.66-1.39-1-2.67-.97l-.67,.09c-.64,.16-1.25,.5-1.61,.95-1.07,1.22-.77,3.35,.54,4.23,1.29,.97,3.18,1.19,3.42,2.09,.23,1.11-.81,1.46-1.85,1.34-.77-.16-1.19-.55-1.66-1.26q-.85,.49-1.72,.99c.21,.45,.42,.66,.77,1.05,1.64,1.67,5.75,1.58,6.49-.94,.03-.09,.23-.66,.07-1.55Zm-8.49-6.85h-2.12v5.48c0,1.17,.05,2.24-.14,2.56-.31,.64-1.11,.56-1.48,.44-.37-.18-.56-.44-.78-.81-.06-.11-.11-.19-.12-.19l-1.72,1.06c.29,.59,.71,1.1,1.25,1.43,.81,.49,1.89,.63,3.03,.37,.74-.22,1.38-.66,1.71-1.34,.48-.89,.38-1.97,.37-3.16,.01-1.94,0-3.89,0-5.84Z"/></g><g><path class="p" d="M1.46,22.3L0,5.9H16.07l-1.46,16.4-6.58,1.82-6.56-1.82Z"/><path class="m" d="M8.03,22.73l5.32-1.47,1.25-14.01h-6.57v15.49Z"/><path class="j" d="M8.03,13.33h-2.66l-.18-2.06h2.85v-2.01H2.99l.05,.54,.49,5.54h4.5v-2.01Zm0,5.22h0l-2.24-.6-.14-1.6H3.62l.28,3.16,4.12,1.14h0v-2.1Z"/><path class="l" d="M1.49,1.45h1.02v1.01h.94V1.45h1.02v3.06h-1.02v-1.02h-.93v1.02H1.49V1.45Zm4.32,1.01h-.9V1.45h2.82v1.01h-.9v2.04h-1.02V2.46Zm2.37-1.01h1.07l.66,1.07,.65-1.07h1.07v3.06h-1.02v-1.52l-.7,1.09h-.02l-.7-1.09v1.52h-1V1.45h0Zm3.95,0h1.02V3.49h1.44v1.01h-2.46V1.45Z"/><path class="l" d="M8.03,13.33v2.01h2.48l-.23,2.61-2.24,.61v2.09l4.12-1.14,.03-.34,.47-5.29,.05-.54h-4.68Zm0-4.07v2.01h4.86l.04-.45,.09-1.02,.05-.54h-5.04Z"/></g><g><path class="l" d="M37.78,2.28h-1.33l1.39,1.5v.72h-2.86v-.84h1.39l-1.39-1.5v-.72h2.8v.84Zm-3.37,0h-1.33l1.39,1.5v.72h-2.86v-.84h1.39l-1.39-1.5v-.72h2.8v.84Zm-3.34,.03h-1.44v1.31h1.44v.87h-2.46V1.45h2.46v.87Z"/><path class="r" d="M26.65,22.3l-1.46-16.4h16.06l-1.46,16.4-6.58,1.82-6.56-1.82Z"/><path class="s" d="M33.22,22.73l5.32-1.47,1.25-14.01h-6.57v15.48Z"/><path class="l" d="M33.22,13.18h2.66l.18-2.06h-2.85v-2.01h5.04l-.05,.54-.49,5.54h-4.5v-2.01Z"/><path class="j" d="M33.23,18.41h0l-2.24-.6-.14-1.6h-2.02l.28,3.16,4.12,1.14h0v-2.09h0Z"/><path class="l" d="M35.71,15.11l-.24,2.69-2.24,.61v2.09l4.12-1.14,.03-.34,.35-3.91h-2.02Z"/><path class="j" d="M33.23,9.11v2.01h-4.86l-.04-.45-.09-1.02-.05-.54h5.04Zm0,4.07v2.01h-2.21l-.04-.45-.09-1.02-.05-.54h2.39Z"/></g><g><circle class="u" cx="201.15" cy="9.74" r="1.7"/><path class="u" d="M201.15,15.98c1.33,1.3,2.65,2.06,3.71,2.06,.35,0,.68-.07,.95-.24,.95-.55,1.3-1.92,.97-3.87-.05-.35-.13-.69-.22-1.06,.37-.11,.69-.22,1.02-.33,1.84-.71,2.87-1.7,2.87-2.78s-1.02-2.08-2.87-2.78c-.33-.13-.66-.24-1.02-.33,.09-.37,.16-.71,.22-1.06,.31-1.99-.04-3.38-.99-3.93-.27-.16-.6-.24-.95-.24-1.04,0-2.37,.77-3.71,2.06-1.31-1.3-2.63-2.06-3.69-2.06-.35,0-.68,.07-.95,.24-.95,.55-1.3,1.92-.97,3.87,.05,.35,.13,.69,.22,1.06-.37,.11-.69,.22-1.02,.33-1.84,.71-2.87,1.7-2.87,2.78s1.02,2.08,2.87,2.78c.33,.13,.66,.24,1.02,.33-.09,.37-.16,.71-.22,1.06-.31,1.95,.04,3.34,.97,3.87,.27,.16,.6,.24,.95,.24,1.06,.04,2.37-.73,3.71-2.01h0Zm-1.02-2.47c.33,.02,.68,.02,1.02,.02s.69,0,1.02-.02c-.33,.44-.68,.84-1.02,1.22-.35-.38-.69-.79-1.02-1.22Zm-2.26-1.88c.18,.31,.35,.6,.55,.89-.57-.07-1.1-.16-1.61-.27,.16-.49,.35-1,.57-1.52,.15,.29,.31,.6,.49,.89Zm-1.06-4.4c.51-.11,1.04-.2,1.61-.27-.18,.29-.37,.58-.55,.89s-.35,.6-.49,.91c-.24-.53-.42-1.04-.57-1.53Zm1,2.5c.24-.49,.49-.99,.79-1.48,.27-.47,.58-.95,.89-1.42,.55-.04,1.1-.05,1.66-.05s1.13,.02,1.66,.05c.33,.47,.62,.95,.89,1.42,.29,.49,.55,.99,.79,1.48-.24,.49-.49,.99-.79,1.48-.27,.47-.58,.95-.89,1.42-.55,.04-1.1,.05-1.66,.05s-1.13-.02-1.66-.05c-.33-.47-.62-.95-.89-1.42-.29-.49-.55-.99-.79-1.48Zm7.14-.99l-.49-.91c-.18-.31-.35-.6-.55-.89,.57,.07,1.1,.16,1.61,.27-.16,.51-.35,1.02-.57,1.53Zm0,1.97c.22,.51,.4,1.02,.57,1.52-.51,.11-1.04,.2-1.61,.27,.18-.29,.37-.58,.55-.89,.16-.27,.33-.58,.49-.89Zm.42,6.34c-.15,.09-.33,.13-.53,.13-.89,0-2.01-.73-3.1-1.83,.53-.57,1.04-1.21,1.55-1.92,.86-.07,1.68-.2,2.45-.38,.09,.33,.15,.66,.2,.99,.26,1.55,.05,2.67-.57,3.01Zm.95-9.62c2.05,.58,3.27,1.48,3.27,2.3,0,.71-.84,1.42-2.32,1.99-.29,.11-.62,.22-.95,.31-.24-.75-.53-1.52-.89-2.3,.37-.79,.68-1.55,.89-2.3Zm-1.46-5.15c.2,0,.37,.04,.53,.13,.6,.35,.82,1.44,.57,3.01-.05,.31-.13,.64-.2,.99-.77-.16-1.59-.29-2.45-.38-.49-.71-1.02-1.35-1.55-1.92,1.1-1.08,2.21-1.83,3.1-1.83Zm-2.68,3.67c-.33-.02-.68-.02-1.02-.02s-.69,0-1.02,.02c.33-.44,.68-.84,1.02-1.22,.35,.38,.69,.8,1.02,1.22Zm-5.24-3.54c.15-.09,.33-.13,.53-.13,.89,0,2.01,.73,3.1,1.83-.53,.57-1.04,1.21-1.55,1.92-.86,.07-1.68,.2-2.45,.38-.09-.33-.15-.66-.2-.99-.26-1.55-.05-2.65,.57-3.01Zm-.95,9.62c-2.05-.58-3.27-1.48-3.27-2.3,0-.71,.84-1.42,2.32-1.99,.29-.11,.62-.22,.95-.31,.24,.75,.53,1.52,.89,2.3-.37,.79-.68,1.57-.89,2.3Zm.38,2.01c.05-.31,.13-.64,.2-.99,.77,.16,1.59,.29,2.45,.38,.49,.71,1.02,1.35,1.55,1.92-1.1,1.08-2.21,1.83-3.1,1.83-.2,0-.37-.04-.53-.13-.62-.35-.82-1.46-.57-3.01Zm-.77,7.52c.4-.49,.42-1.04,.2-1.59s-.68-.8-1.24-.82c-.68-.02-1.37,0-2.05,0h-.13v4.73h.55v-1.79h.86c.11,0,.2,.04,.26,.13l1.1,1.7s.07,.09,.11,.09h.71c-.44-.68-.86-1.31-1.3-1.97,.38-.05,.71-.18,.93-.47Zm-2.67-.04v-1.81h.2c.42,0,.86-.02,1.28,.02,.49,.02,.84,.4,.84,.89s-.4,.88-.89,.89c-.44,.02-.88,0-1.42,0Zm7.07,.24c-.29-1.28-1.46-1.61-2.36-1.21-.69,.31-1,.91-1.02,1.66-.02,.57,.15,1.08,.58,1.46,.49,.44,1.1,.49,1.72,.38,.35-.07,.66-.24,.89-.49-.09-.13-.18-.26-.27-.37-.51,.44-1.08,.58-1.7,.29-.4-.2-.6-.69-.64-1.06h2.83v-.24c.02-.16,0-.31-.04-.44Zm-2.76,.29c-.05-.55,.49-1.13,1.1-1.13,.69-.02,1.13,.4,1.15,1.13h-2.25Zm5.61-1.59c-.27-.05-.57-.07-.84-.05-.44,.04-.82,.24-1.13,.57,.09,.13,.16,.26,.27,.4,.04-.04,.07-.07,.11-.09,.29-.27,.64-.42,1.06-.38,.33,.02,.64,.13,.73,.46,.07,.26,.05,.53,.07,.8-.05,0-.07-.02-.09-.04-.44-.37-.93-.44-1.46-.31-.49,.13-.8,.51-.84,1-.04,.57,.22,.99,.71,1.19,.31,.13,.66,.13,.99,.05,.26-.05,.37-.2,.73-.4v.24h.51c0-.73,.02-1.63,0-2.47,0-.53-.31-.86-.82-.97Zm.26,2.3c-.02,.05,0,.11,0,.16,0,.38-.09,.51-.46,.66-.26,.09-.53,.13-.8,.04-.31-.09-.53-.37-.53-.68-.02-.31,.18-.62,.49-.71,.42-.15,.8-.05,1.15,.2,.11,.09,.18,.18,.15,.33Zm2.85-1.81c.47-.15,.91-.05,1.24,.35l.05,.04c.13-.11,.24-.22,.38-.35-.05-.05-.07-.09-.11-.15-.53-.57-1.57-.64-2.21-.18-.89,.66-.88,1.94-.44,2.61,.42,.64,1.02,.86,1.73,.77,.42-.05,.77-.26,1.04-.6-.13-.11-.26-.22-.38-.35-.04,.04-.05,.05-.07,.09-.49,.55-1.31,.49-1.75-.09-.26-.35-.31-.75-.24-1.15,.04-.46,.27-.82,.75-.99h0Zm3.8,2.48s-.05,.04-.05,.04c-.15,.11-.29,.13-.46,.07-.16-.07-.18-.22-.2-.37v-2.08s0,.04,.02-.15h.69v-.55h-.73v-.91h-.55v.99h-.47s-.09,.04-.09,.07c-.02,.13,0,.22,0,.4h.58v2.34c0,.29,.07,.55,.33,.69,.27,.16,.8,.13,1.04-.07,.04-.02,.05-.09,.05-.11-.05-.11-.11-.24-.16-.37Z"/></g><g><path class="d" d="M58.04,5.43c.92-3.62,3.21-5.43,6.88-5.43,5.5,0,6.19,4.07,8.94,4.75,1.83,.45,3.44-.23,4.81-2.03-.92,3.62-3.21,5.43-6.88,5.43-5.5,0-6.19-4.07-8.94-4.75-1.83-.45-3.44,.23-4.81,2.03Zm-6.88,8.14c.92-3.62,3.21-5.43,6.88-5.43,5.5,0,6.19,4.07,8.94,4.75,1.83,.45,3.44-.23,4.81-2.03-.92,3.62-3.21,5.43-6.88,5.43-5.5,0-6.19-4.07-8.94-4.75-1.83-.45-3.44,.23-4.81,2.03Z"/><text class="h" transform="translate(50.37 23.54)"><tspan class="v" x="0" y="0">T</tspan><tspan class="e" x="4.1" y="0">ailwind</tspan></text></g><g><path class="i" d="M262.16,8.58c0-.95-.66-1.76-1.54-1.99l1.97-5.82h-9.78l1.98,5.84c-.85,.25-1.48,1.04-1.48,1.97,0,.69,.35,1.3,.87,1.67-.21,.29-.44,.56-.72,.82-.51,.48-1.07,.84-1.68,1.09-.55-.37-.79-1.03-.57-1.61,.84-.26,1.45-1.04,1.45-1.96,0-1.13-.92-2.05-2.05-2.05s-2.06,.92-2.06,2.06c0,.54,.21,1.06,.6,1.44l-.1,.2c-.31,.63-.66,1.35-.79,2.15-.27,1.61,.17,2.9,1.22,3.62,.59,.41,1.24,.61,1.95,.61,1.21,0,2.43-.61,3.62-1.19,.84-.42,1.72-.85,2.57-1.06,.32-.08,.65-.12,1-.17,.71-.1,1.44-.21,2.09-.59,.77-.44,1.29-1.19,1.44-2.04,.11-.66,0-1.32-.29-1.89,.2-.32,.31-.69,.31-1.09h0Zm-.89,0c0,.64-.52,1.16-1.16,1.16s-1.16-.52-1.16-1.16c0-.21,.05-.4,.15-.57,.04-.06,.08-.13,.13-.18,.05-.06,.1-.11,.16-.15h0s.08-.06,.12-.09c0,0,0,0,0,0,.02,0,.04-.02,.05-.03,0,0,0,0,.01,0,.02,0,.04-.02,.06-.03s.05-.02,.06-.03c0,0,0,0,.01,0,.02,0,.04-.01,.05-.02,0,0,.01,0,.02,0h.07l.07-.03s.01,0,.02,0c.02,0,.04,0,.05,0h.02s.05,0,.07,0h.06s.03,0,.05,0h0s.07,0,.11,.02c.54,.11,.92,.59,.92,1.14h0Zm-7.17-6.88h7.22l-1.66,4.89c-.07,.01-.14,.04-.21,.06l-1.74-3.56-1.75,3.53c-.07-.02-.14-.04-.22-.05l-1.65-4.87Zm3.28,6.49c-.09-.43-.31-.82-.62-1.1l.95-1.92,.96,1.96c-.29,.29-.49,.66-.57,1.06h-.72Zm-2.3-.73h.08s.04-.02,.05-.02h.02s.03,0,.05,0h.18s.03,0,.05,0c0,0,.01,0,.02,0,.02,0,.03,0,.05,0,0,0,0,0,.02,0h.06s.04,.02,.06,.03c0,0,0,0,.02,0,.01,0,.03,0,.05,.02,0,0,0,0,.01,0,.02,0,.04,.01,.05,.02h0s.04,.02,.06,.03c.02,0,.04,.02,.06,.03,0,0,0,0,0,0,.02,0,.03,.02,.05,.03h0c.05,.05,.11,.09,.16,.14h0c.05,.06,.09,.11,.13,.17,.12,.19,.19,.41,.19,.63,0,.64-.52,1.16-1.16,1.16s-1.16-.52-1.16-1.16c0-.54,.37-.99,.87-1.12h0Zm-4.51-.04c.64,0,1.16,.52,1.16,1.16s-.52,1.16-1.16,1.16-1.16-.52-1.16-1.16,.52-1.16,1.16-1.16Zm10.67,3.98c-.1,.59-.46,1.1-1,1.41-.5,.29-1.12,.38-1.76,.47-.35,.05-.73,.11-1.08,.19-.95,.23-1.87,.69-2.76,1.13-1.14,.56-2.21,1.1-3.21,1.1-.52,0-.98-.15-1.42-.45-1.01-.7-.96-2-.84-2.72,.11-.67,.42-1.3,.71-1.9,.02-.04,.03-.07,.05-.11,.1,.04,.21,.06,.32,.08-.17,.97,.32,1.98,1.28,2.47l.17,.09,.19-.07c.8-.28,1.55-.75,2.2-1.37,.36-.34,.68-.72,.95-1.13,.11,.02,.21,.02,.32,.02,.95,0,1.76-.66,1.99-1.54h.77c.23,.89,1.03,1.54,1.99,1.54,.36,0,.72-.1,1.04-.28,.12,.35,.16,.7,.09,1.06h0Z"/><text class="f" transform="translate(248.32 22.92)"><tspan x="0" y="0">Jest</tspan></text></g><g><text class="g" transform="translate(219.56 22.99)"><tspan x="0" y="0">Redux</tspan></text><path class="t" d="M232.48,11.64c.61-.06,1.07-.59,1.04-1.21-.02-.63-.54-1.13-1.17-1.13h-.04c-.65,.02-1.15,.56-1.13,1.21,.02,.31,.15,.59,.33,.77-.71,1.4-1.8,2.42-3.43,3.28-1.11,.59-2.26,.79-3.41,.65-.94-.13-1.67-.54-2.13-1.23-.67-1.02-.73-2.13-.17-3.24,.4-.79,1.02-1.38,1.42-1.67-.08-.27-.21-.73-.27-1.07-3.03,2.19-2.72,5.16-1.8,6.56,.69,1.04,2.09,1.69,3.64,1.69,.42,0,.84-.04,1.25-.15,2.67-.52,4.7-2.11,5.85-4.47h0Zm3.68-2.59c-1.59-1.86-3.93-2.88-6.6-2.88h-.33c-.19-.38-.59-.63-1.02-.63h-.04c-.65,.02-1.15,.56-1.13,1.21,.02,.63,.54,1.13,1.17,1.13h.04c.46-.02,.86-.31,1.02-.71h.38c1.59,0,3.09,.46,4.45,1.36,1.04,.69,1.8,1.59,2.21,2.67,.36,.88,.33,1.73-.04,2.47-.58,1.11-1.57,1.71-2.86,1.71-.84,0-1.63-.25-2.05-.44-.23,.21-.65,.54-.94,.75,.9,.42,1.82,.65,2.7,.65,2.01,0,3.49-1.11,4.05-2.21,.61-1.21,.56-3.3-1-5.08h0Zm-10.61,2.95c.02,.63,.54,1.13,1.17,1.13h.04c.65-.02,1.15-.56,1.13-1.21-.02-.63-.54-1.13-1.17-1.13h-.04s-.1,0-.15,.02c-.86-1.42-1.21-2.97-1.09-4.64,.08-1.25,.5-2.34,1.23-3.24,.61-.77,1.78-1.15,2.57-1.17,2.21-.04,3.15,2.72,3.22,3.82,.27,.06,.73,.21,1.04,.31-.25-3.38-2.34-5.14-4.35-5.14-1.88,0-3.61,1.36-4.3,3.36-.96,2.67-.33,5.24,.84,7.27-.1,.15-.17,.38-.15,.61h0Z"/></g><g><rect class="q" x="159.88" y="1.36" width="22.85" height="22.85" rx="1.91" ry="1.91"/><path class="l" d="M164.89,12.82v.93h2.97v8.46h2.11V13.76h2.97v-.91c0-.51,0-.93-.02-.94,0-.02-1.81-.02-4.01-.02l-4,.02v.94h-.02Zm13.35-.96c.58,.14,1.03,.4,1.43,.82,.21,.23,.53,.63,.55,.73,0,.03-.99,.7-1.59,1.07-.02,.02-.11-.08-.21-.23-.3-.42-.6-.61-1.07-.64-.69-.05-1.14,.31-1.14,.91,0,.18,.03,.29,.1,.43,.15,.31,.44,.5,1.33,.89,1.63,.7,2.34,1.17,2.77,1.83,.49,.74,.59,1.91,.27,2.78-.37,.95-1.26,1.6-2.53,1.81-.4,.07-1.31,.06-1.74-.02-.91-.17-1.79-.63-2.33-1.22-.21-.23-.62-.84-.59-.88l.22-.14,.86-.5,.65-.38,.15,.2c.19,.3,.61,.7,.86,.83,.74,.38,1.74,.33,2.23-.11,.21-.19,.3-.4,.3-.69,0-.26-.04-.38-.17-.58-.18-.25-.55-.46-1.58-.91-1.18-.5-1.69-.82-2.15-1.31-.27-.3-.51-.76-.63-1.14-.09-.33-.11-1.14-.03-1.47,.25-1.14,1.11-1.94,2.34-2.17,.4-.08,1.34-.05,1.74,.06h-.01Z"/></g></g></svg>