<?xml version="1.0" encoding="UTF-8"?><svg id="a" xmlns="http://www.w3.org/2000/svg" viewBox="0 0 206.99 25.01"><defs><style>.b{letter-spacing:.03em;}.c{letter-spacing:.02em;}.d{fill:#f3f3f3;}.e{fill:#010101;}.f{fill:#fff;}.g{fill:#f36c3d;}.h{fill:#66a060;}.i{fill:#649d58;}.j{fill:#333;}.k{fill:#c3bfbf;}.l{fill:#222;}.m{fill:#356892;}.n{fill:#3e8840;}.o{fill:#6da75d;}.p{fill:#6dac46;}.q{fill:#55a345;}.r{fill:#599642;}.s{fill:#326994;font-size:6.81px;}.s,.t,.u{font-family:Roboto-Medium, Roboto;}.t{fill:#f36d3e;font-size:6.87px;}.v{letter-spacing:.02em;}.w{letter-spacing:.02em;}.u{fill:#231f20;font-size:6.54px;letter-spacing:.03em;}</style></defs><g><g><path class="g" d="M198.91,3.37c-2.7-3.49-7.71-4.14-11.2-1.44-3.49,2.7-4.14,7.71-1.44,11.2,2.7,3.49,7.71,4.14,11.2,1.44h0c3.49-2.7,4.13-7.71,1.44-11.2h0Z"/><path class="f" d="M195.28,5.36l-3.37,3.39-.95-.98c3.31-3.31,3.65-3.02,4.32-2.42h0Z"/><path class="g" d="M191.92,8.84s-.06-.01-.08-.03l-.96-.96s-.04-.12,0-.17c3.27-3.27,3.71-3.12,4.49-2.42,.03,.02,.04,.05,.04,.09,0,.03,0,.07-.03,.09l-3.37,3.37s-.05,.03-.09,.03h0Zm-.79-1.07l.79,.79,3.19-3.19c-.23-.29-.64-.36-.95-.16-.58,.26-1.51,1.05-3.04,2.57Z"/><path class="f" d="M192.88,9.69l-.92-.94,3.37-3.33c.91,.89-.44,2.36-2.45,4.27h0Z"/><path class="g" d="M192.88,9.81s-.06-.01-.08-.03l-.94-.92s-.01-.07,0-.11c0-.03,0-.06,0-.09l3.37-3.37s.12-.05,.17,0c.22,.2,.34,.49,.33,.79,0,.9-1.03,2.03-2.77,3.68-.02,.02-.05,.04-.09,.04h0Zm-.75-1.06l.75,.75c1.33-1.26,2.6-2.56,2.61-3.43,0-.19-.05-.37-.17-.51l-3.19,3.2Z"/><path class="f" d="M190.99,7.79l.67,.67s.02,.04,0,.06h0l-1.4,.3c-.06,.01-.12-.02-.15-.07s-.02-.12,.03-.16l.82-.81s.03,0,.04,.01Z"/><path class="g" d="M190.22,8.95c-.09,0-.17-.05-.22-.13-.05-.1-.03-.22,.05-.3l.81-.82c.06-.05,.15-.05,.21,0l.67,.67s.05,.09,.04,.15-.06,.09-.11,.11l-1.4,.3-.04,.03Zm.75-1.01l-.75,.75,1.24-.27-.49-.49Z"/><path class="f" d="M197.08,3.49c-.48-.46-1.24-.48-1.74-.05s-.59,1.19-.2,1.73,1.13,.69,1.71,.35l-.91-.91,1.14-1.13Z"/><path class="g" d="M196.18,5.83c-.57,0-1.07-.35-1.29-.88-.21-.52-.1-1.12,.3-1.53,.55-.54,1.44-.54,2,0,.03,.02,.04,.05,.04,.09,0,.03-.01,.06-.04,.09l-1.08,1.02,.82,.81s.04,.06,.03,.1c0,.04-.02,.07-.05,.09-.22,.14-.47,.21-.73,.22h0Zm0-2.58c-.47,0-.9,.29-1.08,.72s-.08,.94,.25,1.27c.34,.34,.85,.44,1.29,.25l-.79-.79s-.04-.05-.04-.09c0-.03,.02-.06,.04-.08l1.04-1.05c-.21-.16-.46-.24-.72-.25h0Z"/><path class="f" d="M197.1,3.51l-1.14,1.13,.91,.91c.09-.05,.18-.11,.25-.19,.49-.52,.48-1.34-.02-1.85Z"/><path class="g" d="M196.84,5.64s-.06-.01-.08-.03l-.91-.91s-.04-.05-.04-.09c0-.03,.02-.06,.04-.08l1.13-1.11c.04-.06,.11-.07,.17-.03,.01,0,.02,.02,.03,.03,.55,.54,.56,1.43,.02,1.98l-.02,.02c-.08,.08-.17,.15-.27,.21-.02,.01-.05,.01-.08,0h0Zm-.73-1.02l.75,.75c.05-.04,.1-.08,.15-.12,.22-.22,.35-.52,.35-.83,0-.28-.1-.55-.29-.76l-.96,.96Z"/><path class="f" d="M195.42,5.5c-.19-.18-.48-.18-.67,0l-3.01,3.01,.5,.51,3.19-2.8c.1-.09,.15-.22,.15-.36s-.06-.27-.16-.36h0Z"/><path class="g" d="M192.22,9.13s-.06-.01-.08-.03l-.51-.51s-.04-.12,0-.17l3.02-3c.24-.24,.63-.24,.87,0,.12,.12,.18,.28,.18,.45,0,.17-.08,.33-.21,.44l-3.19,2.8s-.05,.02-.08,.02h0Zm-.35-.63l.33,.34,3.13-2.72c.08-.07,.12-.16,.13-.27s-.04-.2-.11-.27c-.15-.14-.38-.14-.53,0l-2.95,2.92Z"/><path class="f" d="M189.41,11.93s-.02,.06,0,.08l.13,.58c.01,.07-.02,.14-.08,.17-.06,.04-.14,.03-.19-.02l-.91-.88,2.84-2.86h.99l.67,.67c-1.04,.91-2.2,1.67-3.44,2.26Z"/><path class="g" d="M189.35,12.91c-.08,0-.15-.03-.2-.09l-.87-.87s-.04-.05-.04-.09c0-.03,.02-.06,.04-.08l2.86-2.87s.04-.03,.06-.03h.99s.05,0,.08,0l.67,.67s.04,.06,.03,.09c0,.03-.01,.07-.04,.09l-.05,.05c-1.04,.87-2.19,1.6-3.41,2.19l.13,.54c.04,.15-.06,.31-.21,.35-.02,0-.04,0-.06,0l.03,.05Zm-.81-1.05l.79,.79s.04,.01,.05,0c.01-.01,.01-.03,0-.05l-.13-.58c-.02-.09,.02-.17,.1-.21,1.19-.58,2.31-1.3,3.33-2.14l-.55-.55h-.89l-2.7,2.74Z"/><path class="f" d="M187.67,12.55l.67-.67,1.03,1.03-1.63-.11c-.06,0-.11-.04-.12-.1s.01-.11,.06-.14h0Z"/><path class="g" d="M189.38,13.01l-1.62-.11c-.1,0-.18-.07-.21-.16s-.01-.19,.05-.26l.67-.67s.12-.04,.17,0l1.02,1.02s.03,.09,0,.13c-.02,.02-.04,.04-.07,.05h0Zm-1.62-.37l1.33,.09-.73-.69-.6,.6Z"/><path class="f" d="M192.28,9.08l-1.34,.21,.78-.77,.57,.57Z"/><path class="g" d="M190.93,9.42s-.09-.02-.11-.07c-.03-.04-.03-.09,0-.13l.77-.78s.12-.05,.17,0l.57,.57s.02,.08,0,.12c-.01,.04-.05,.08-.09,.09l-1.33,.21h.02Zm.78-.73l-.43,.43,.75-.11-.31-.32Z"/><path class="f" d="M192.28,9.08l-.94,.12c-.06,.01-.13-.03-.14-.09,0-.04,0-.08,.03-.11l.49-.49,.57,.57Z"/><path class="g" d="M191.31,9.33c-.09,0-.17-.05-.21-.13-.05-.09-.04-.21,.04-.29l.49-.49s.12-.05,.17,0l.57,.57s.05,.12,0,.17c-.02,.02-.05,.03-.08,.04l-.93,.12h-.05Zm0-.24l.71-.09-.31-.31-.4,.4h0Zm5.79-4.81s-.08-.06-.13-.04c-.02,.01-.04,.03-.05,.05,0,.02,0,.05,0,.07,.05,.1,.03,.21-.03,.3-.02,.02-.02,.04-.02,.06,0,.02,0,.05,.02,.06,.02,0,.04,0,.05,0,.03,0,.06,0,.09-.03,.11-.14,.14-.33,.06-.49h0Z"/></g><text class="t" transform="translate(178.19 22.88)"><tspan class="w" x="0" y="0">P</tspan><tspan class="b" x="4.52" y="0">ostman</tspan></text></g><g><text class="s" transform="translate(93.52 22.57)"><tspan class="v" x="0" y="0">P</tspan><tspan class="c" x="4.48" y="0">ostgresSQL</tspan></text><g><path class="e" d="M122.95,11.22c-.1-.31-.37-.53-.72-.58-.17-.02-.35-.01-.58,.03-.39,.08-.68,.11-.89,.12,.8-1.35,1.45-2.88,1.82-4.33,.6-2.34,.28-3.4-.1-3.88-1-1.27-2.45-1.96-4.21-1.98-.94-.01-1.76,.17-2.19,.31-.4-.07-.83-.11-1.28-.12-.84-.01-1.59,.17-2.23,.55-.35-.12-.92-.29-1.57-.4-1.54-.25-2.78-.06-3.69,.59-1.1,.78-1.61,2.12-1.51,4.01,.03,.6,.36,2.42,.89,4.14,.3,.99,.63,1.81,.96,2.45,.47,.9,.98,1.43,1.55,1.61,.32,.11,.9,.18,1.51-.33,.08,.09,.18,.19,.32,.27,.17,.11,.39,.2,.6,.25,.76,.19,1.48,.14,2.09-.12,0,.11,0,.21,0,.3,0,.15,0,.29,.01,.42,.04,.9,.1,1.6,.28,2.09,0,.03,.02,.07,.04,.11,.09,.28,.24,.74,.63,1.11,.4,.38,.88,.49,1.32,.49,.22,0,.43-.03,.62-.07,.66-.14,1.41-.36,1.96-1.13,.51-.73,.76-1.83,.81-3.57l.02-.14v-.09h.16c.67,.04,1.5-.1,2-.33,.4-.19,1.68-.86,1.38-1.78"/><path class="m" d="M121.8,11.4c-2,.41-2.14-.27-2.14-.27,2.12-3.14,3-7.12,2.24-8.1-2.08-2.66-5.69-1.4-5.75-1.37h-.02c-.4-.08-.84-.13-1.34-.14-.91-.01-1.59,.24-2.12,.63,0,0-6.43-2.65-6.13,3.33,.06,1.27,1.82,9.63,3.92,7.1,.77-.92,1.51-1.7,1.51-1.7,.37,.24,.81,.37,1.27,.32l.04-.03c-.01,.11,0,.23,.01,.36-.54,.6-.38,.71-1.46,.93-1.09,.23-.45,.63-.03,.73,.51,.13,1.69,.31,2.48-.81l-.03,.13c.21,.17,.36,1.1,.34,1.95-.02,.85-.04,1.43,.13,1.88,.17,.45,.33,1.48,1.75,1.17,1.19-.25,1.8-.91,1.89-2.01,.06-.78,.2-.67,.21-1.37l.11-.33c.13-1.06,.02-1.4,.75-1.24l.18,.02c.54,.02,1.24-.09,1.66-.28,.89-.41,1.42-1.1,.54-.92h0"/><path class="f" d="M113.05,6.06c-.18-.03-.34,0-.43,.06-.05,.04-.06,.08-.06,.1-.01,.07,.04,.16,.07,.2,.09,.12,.22,.2,.35,.22,.02,0,.04,0,.06,0,.22,0,.42-.17,.43-.3,.02-.16-.21-.26-.43-.29m5.98,0c-.02-.12-.24-.16-.45-.13-.21,.03-.41,.12-.39,.25,.01,.1,.19,.26,.39,.26,.02,0,.03,0,.05,0,.14-.02,.24-.11,.29-.16,.07-.08,.11-.16,.11-.22"/><path class="f" d="M122.46,11.35c-.08-.23-.32-.31-.73-.22-1.21,.25-1.65,.08-1.79-.03,.94-1.44,1.72-3.17,2.14-4.79,.2-.77,.31-1.48,.32-2.06,0-.64-.1-1.11-.32-1.39-.9-1.15-2.23-1.77-3.83-1.79-1.1-.01-2.03,.27-2.22,.35-.38-.09-.8-.15-1.25-.16-.83-.01-1.54,.18-2.14,.59-.26-.1-.92-.32-1.74-.46-1.41-.23-2.52-.05-3.32,.51-.95,.67-1.39,1.88-1.31,3.58,.03,.57,.35,2.33,.87,4.02,.68,2.22,1.41,3.48,2.19,3.74,.09,.03,.2,.05,.31,.05,.28,0,.63-.13,.99-.56,.44-.53,.9-1.04,1.36-1.54,.3,.16,.64,.25,.98,.26v.03c-.06,.07-.11,.14-.17,.21-.24,.3-.29,.36-1.05,.52-.22,.04-.79,.16-.8,.57,0,.44,.68,.63,.76,.65,.27,.07,.54,.1,.79,.1,.61,0,1.15-.2,1.58-.59-.01,1.58,.05,3.13,.24,3.6,.15,.39,.53,1.33,1.73,1.33,.18,0,.37-.02,.58-.07,1.25-.27,1.79-.82,2-2.03,.11-.65,.3-2.2,.4-3.03,.19,.06,.44,.09,.7,.09,.55,0,1.19-.12,1.6-.3,.45-.21,1.26-.72,1.12-1.17h0Zm-2.97-5.62c0,.25-.04,.47-.07,.7-.04,.25-.08,.51-.09,.82,0,.31,.03,.62,.07,.93,.07,.62,.15,1.26-.15,1.89-.05-.09-.09-.18-.13-.27-.04-.09-.12-.23-.23-.43-.43-.77-1.44-2.58-.92-3.32,.15-.22,.54-.45,1.53-.32h0Zm-1.19-4.16c1.44,.03,2.57,.57,3.38,1.6,.62,.79-.06,4.38-2.03,7.48l-.06-.08-.02-.03c.51-.84,.41-1.67,.32-2.41-.04-.3-.07-.59-.06-.86,0-.28,.05-.53,.08-.76,.04-.29,.09-.59,.08-.95,0-.04,.01-.08,0-.13-.03-.34-.42-1.36-1.21-2.28-.43-.5-1.06-1.07-1.92-1.45,.37-.08,.88-.15,1.44-.14h0Zm-8.04,10.85c-.4,.48-.67,.39-.76,.36-.59-.2-1.27-1.44-1.87-3.41-.52-1.71-.82-3.42-.85-3.9-.08-1.52,.29-2.58,1.1-3.15,1.31-.93,3.46-.37,4.32-.09-.01,.01-.03,.02-.04,.04-1.42,1.43-1.38,3.88-1.38,4.03,0,.06,0,.14,.01,.25,.02,.41,.07,1.18-.05,2.04-.11,.81,.14,1.59,.68,2.16,.06,.06,.11,.11,.18,.17-.24,.26-.77,.84-1.33,1.51h0Zm1.51-2.02c-.44-.46-.64-1.1-.55-1.75,.13-.92,.08-1.71,.06-2.14,0-.06,0-.11,0-.15,.21-.18,1.17-.7,1.85-.54,.31,.07,.5,.28,.58,.65,.41,1.89,.05,2.68-.23,3.32-.06,.13-.11,.25-.16,.38l-.04,.1c-.09,.25-.18,.48-.23,.7-.47,0-.92-.2-1.27-.56h0Zm.07,2.55c-.14-.03-.26-.09-.33-.14,.06-.03,.17-.07,.35-.11,.9-.18,1.04-.32,1.34-.7,.07-.09,.15-.19,.26-.31h0c.16-.18,.24-.15,.37-.1,.11,.05,.22,.18,.26,.33,.02,.07,.04,.21-.03,.31-.63,.89-1.56,.87-2.22,.71Zm4.7,4.38c-1.1,.24-1.49-.33-1.74-.97-.17-.41-.25-2.28-.19-4.34,0-.03,0-.05-.01-.08,0-.05-.02-.1-.03-.15-.09-.3-.3-.55-.55-.65-.1-.04-.28-.12-.5-.06,.05-.19,.13-.41,.22-.65l.04-.1c.04-.11,.09-.23,.15-.35,.3-.66,.71-1.57,.26-3.63-.17-.77-.72-1.14-1.56-1.06-.5,.05-.97,.26-1.2,.37-.05,.03-.09,.05-.14,.07,.06-.77,.31-2.22,1.22-3.14,.57-.58,1.33-.86,2.26-.85,1.83,.03,3,.97,3.66,1.75,.57,.67,.88,1.35,1,1.72-.93-.09-1.56,.09-1.88,.55-.7,.99,.38,2.92,.9,3.85,.09,.17,.18,.32,.2,.38,.17,.41,.39,.68,.55,.88,.05,.06,.1,.12,.13,.17-.28,.08-.78,.27-.74,1.2-.04,.47-.3,2.66-.43,3.44-.18,1.02-.55,1.41-1.61,1.63h0Zm4.59-5.25c-.29,.13-.77,.23-1.22,.25-.5,.02-.76-.06-.82-.11-.03-.58,.19-.64,.42-.71,.04-.01,.07-.02,.11-.03,.02,.02,.04,.03,.07,.05,.41,.27,1.13,.3,2.15,.09h.01c-.14,.13-.37,.3-.71,.45h0Z"/></g></g><g><path class="d" d="M22.68,12.5c0,6.26-5.08,11.34-11.34,11.34C5.56,23.84,.79,19.52,.09,13.93,.03,13.46,0,12.98,0,12.5,0,11.62,.1,10.75,.29,9.92,1.46,4.91,5.96,1.17,11.34,1.17s9.85,3.72,11.03,8.72c.16,.66,.25,1.34,.29,2.02,.01,.2,.02,.4,.02,.6h0Z"/><path class="n" d="M10.77,13.41v-2.95l-2.55-1.47-2.55,1.47v2.95l2.55,1.47,2.55-1.47Z"/><path class="j" d="M20.83,12.97l1.66,.96-1.66,.96-2.55-1.47v-2.95l2.55-1.47,1.55,.89c.16,.66,.25,1.34,.29,2.02l-.95,.55v-1.03l-.89-.51-.89,.51v1.03l.89,.51Z"/><path class="h" d="M21.32,12.23v-.57l-.5-.29-.5,.29v.57l.5,.29,.5-.29Z"/><path class="j" d="M4.46,10.47v3.89l-1.7-.97v-1.99l-.85-.49-.85,.49v1.99l-.97,.55c-.06-.47-.09-.95-.09-1.43,0-.89,.1-1.75,.29-2.58l1.61-.93,2.55,1.47Z"/><path class="o" d="M8.22,8.99l2.55,4.42-2.55,1.47-2.55-4.42,2.55-1.47Z"/><path class="q" d="M5.67,13.41l.88-1.43-.88-1.52v2.95Z"/><path class="i" d="M9.92,11.94l.85-1.47-2.55-1.47,1.7,2.95Z"/><path class="j" d="M15.35,5.58v3.91l-.86-.49-2.55,1.47v2.95l2.55,1.47,2.55-1.47V6.48l-1.7-.91Zm0,6.86l-.85,.49-.85-.49v-.98l.85-.49,.85,.49v.98Z"/><g><path class="h" d="M12.5,17.05s-.05-.43-.51-.43-.78,.06-.78,.32,.9,.26,1.24,.36c.34,.1,.64,.36,.49,.82s-.61,.51-1.32,.51-.87-.59-.87-.82h.4s-.05,.36,.42,.42,.92,.09,.98-.27c.08-.48-1.52-.24-1.66-.71-.12-.4-.05-.92,.75-1s1.24,.27,1.24,.8h-.38Z"/><path class="h" d="M8.62,18.93l.89,.51c.45,.26,1-.06,1-.58v-2.55h-.36v2.45c0,.28-.3,.46-.55,.32l-.62-.36v-2.61l2.26-1.3,2.26,1.3v2.61l-2.26,1.3-.65-.38-.43,.17,1.08,.62,2.62-1.51v-3.03l-2.62-1.51-2.62,1.51v3.03Z"/></g></g><path class="l" d="M29.49,20.15v-6.45h8.05v-.38h-8.05V7.43h8.56v-.38h-8.94v13.47h9.02v-.38h-8.64Zm15.9-9.32l-3.34,4.4-3.26-4.4h-.49l3.53,4.68-3.87,5.02h.45l3.64-4.73,3.66,4.73h.47l-3.89-5.02,3.55-4.68h-.45Zm1.92,13.02v-6.04h.04c.23,.88,.67,1.59,1.34,2.12,.67,.53,1.52,.8,2.55,.8,.67,0,1.26-.14,1.77-.41s.95-.64,1.29-1.1c.35-.47,.61-1.01,.79-1.62,.18-.62,.27-1.26,.27-1.94,0-.73-.09-1.4-.28-2.02-.19-.62-.46-1.15-.82-1.6-.36-.45-.79-.8-1.3-1.06-.51-.25-1.08-.38-1.73-.38-.49,0-.95,.07-1.37,.22-.42,.14-.8,.35-1.12,.61-.33,.27-.62,.58-.85,.93-.24,.36-.42,.75-.55,1.18h-.04v-2.72h-.38v13.02h.38Zm3.92-3.47c-1.18,0-2.13-.41-2.85-1.22-.72-.81-1.08-1.98-1.08-3.5,0-.63,.09-1.23,.26-1.79,.18-.57,.43-1.06,.76-1.49,.33-.43,.75-.77,1.24-1.02,.49-.25,1.04-.38,1.66-.38s1.18,.13,1.65,.38c.47,.25,.86,.59,1.17,1.03s.54,.93,.7,1.49c.16,.56,.24,1.15,.24,1.78,0,.57-.07,1.13-.22,1.69-.14,.56-.37,1.06-.67,1.51-.3,.45-.69,.81-1.16,1.09-.47,.28-1.04,.42-1.71,.42h0Zm6.21,.15v-5.49c0-.53,.08-1.04,.23-1.55,.15-.5,.38-.95,.7-1.33,.31-.38,.71-.69,1.2-.91,.48-.22,1.06-.31,1.73-.27v-.38c-.58-.01-1.08,.05-1.52,.19-.43,.14-.81,.33-1.12,.57-.31,.24-.57,.52-.75,.84-.19,.32-.33,.67-.42,1.03h-.04v-2.4h-.38v9.7h.38Zm4.32-4.77h8.11c.03-.67-.04-1.31-.2-1.92-.16-.62-.41-1.16-.75-1.64-.35-.48-.79-.86-1.34-1.15s-1.2-.43-1.95-.43c-.54,0-1.07,.11-1.58,.34-.52,.23-.97,.56-1.36,.99s-.7,.97-.94,1.59c-.24,.63-.36,1.35-.36,2.15,0,.72,.08,1.39,.25,2.01s.41,1.16,.75,1.62c.34,.46,.78,.81,1.31,1.07,.53,.25,1.18,.37,1.93,.36,1.11,0,2.04-.31,2.79-.93,.75-.62,1.2-1.5,1.34-2.63h-.38c-.16,1.07-.58,1.87-1.25,2.41-.67,.53-1.52,.8-2.54,.8-.69,0-1.28-.12-1.75-.36-.48-.24-.87-.57-1.17-.98-.3-.42-.52-.9-.67-1.46-.14-.56-.22-1.17-.24-1.82h0Zm7.73-.38h-7.73c.04-.68,.16-1.29,.38-1.83,.21-.54,.49-1,.84-1.39,.35-.38,.75-.68,1.21-.88,.46-.2,.95-.3,1.48-.3,.63,0,1.18,.12,1.66,.35,.48,.23,.88,.55,1.2,.95,.32,.4,.56,.87,.73,1.41,.16,.53,.25,1.1,.25,1.69h0Zm8.21-1.68h.38c0-1.08-.31-1.87-.94-2.36-.63-.49-1.48-.74-2.57-.74-.6,0-1.11,.08-1.53,.23-.41,.15-.75,.35-1.02,.58-.26,.24-.45,.5-.57,.79s-.17,.57-.17,.83c0,.53,.09,.95,.28,1.26,.19,.31,.48,.56,.89,.74,.28,.13,.59,.24,.94,.34,.35,.1,.76,.21,1.23,.32,.41,.1,.82,.2,1.23,.3,.4,.1,.76,.24,1.07,.41,.31,.17,.56,.39,.75,.65,.19,.26,.29,.61,.29,1.04s-.1,.77-.29,1.06c-.19,.29-.45,.53-.75,.71-.3,.18-.64,.31-1.01,.4-.37,.08-.73,.12-1.08,.12-1.14,0-2.02-.25-2.63-.76-.61-.51-.91-1.31-.91-2.41h-.38c0,1.22,.33,2.11,.99,2.68,.66,.57,1.64,.85,2.93,.85,.41,0,.83-.05,1.25-.14,.42-.09,.8-.25,1.13-.46,.33-.21,.61-.49,.81-.83,.21-.34,.31-.75,.31-1.25s-.09-.84-.27-1.13c-.18-.29-.42-.53-.72-.72-.3-.19-.63-.34-1-.44-.37-.11-.75-.21-1.12-.31-.46-.12-.92-.24-1.39-.36-.4-.1-.76-.22-1.1-.36-.33-.14-.59-.34-.78-.59-.19-.26-.29-.63-.29-1.1,0-.09,.03-.25,.08-.47,.05-.23,.17-.46,.36-.69,.19-.23,.48-.44,.87-.62,.39-.18,.92-.27,1.6-.27,.47,0,.89,.05,1.27,.15,.38,.1,.71,.26,.99,.48,.28,.22,.49,.5,.64,.84,.15,.34,.23,.75,.23,1.25h0Zm8.73,0h.38c0-1.08-.31-1.87-.94-2.36s-1.48-.74-2.57-.74c-.6,0-1.11,.08-1.53,.23-.42,.15-.75,.35-1.02,.58-.26,.24-.45,.5-.57,.79s-.17,.57-.17,.83c0,.53,.09,.95,.28,1.26,.19,.31,.48,.56,.89,.74,.28,.13,.59,.24,.94,.34,.35,.1,.76,.21,1.23,.32,.42,.1,.82,.2,1.23,.3,.4,.1,.76,.24,1.07,.41,.31,.17,.56,.39,.75,.65,.19,.26,.29,.61,.29,1.04s-.1,.77-.29,1.06c-.19,.29-.45,.53-.74,.71-.3,.18-.64,.31-1.01,.4-.37,.08-.73,.12-1.08,.12-1.14,0-2.02-.25-2.63-.76-.61-.51-.91-1.31-.91-2.41h-.38c0,1.22,.33,2.11,.99,2.68,.66,.57,1.64,.85,2.93,.85,.42,0,.83-.05,1.25-.14,.42-.09,.8-.25,1.13-.46,.33-.21,.61-.49,.81-.83,.21-.34,.31-.75,.31-1.25s-.09-.84-.27-1.13c-.18-.29-.42-.53-.72-.72-.3-.19-.63-.34-1-.44-.37-.11-.75-.21-1.12-.31-.46-.12-.92-.24-1.39-.36-.4-.1-.76-.22-1.1-.36-.33-.14-.59-.34-.78-.59-.19-.26-.29-.63-.29-1.1,0-.09,.03-.25,.08-.47,.05-.23,.17-.46,.36-.69,.19-.23,.48-.44,.87-.62,.39-.18,.92-.27,1.6-.27,.47,0,.89,.05,1.27,.15,.38,.1,.71,.26,.99,.48s.49,.5,.64,.84c.15,.34,.23,.75,.23,1.25h0Z"/><g><g><path class="r" d="M156.67,.05l.47,.87c.1,.16,.22,.3,.35,.44,.39,.39,.76,.8,1.09,1.24,.79,1.04,1.32,2.19,1.7,3.43,.23,.76,.35,1.54,.36,2.33,.04,2.36-.77,4.38-2.4,6.06-.27,.27-.55,.51-.86,.73-.16,0-.24-.12-.3-.24-.12-.21-.2-.44-.24-.68-.06-.29-.09-.57-.08-.86v-.13s-.16-13.12-.1-13.18h0Z"/><path class="p" d="M156.67,.02s-.04,0-.06,0c0,.19-.06,.36-.16,.52-.11,.16-.27,.29-.42,.42-.85,.73-1.51,1.62-2.04,2.6-.71,1.33-1.07,2.76-1.18,4.26-.05,.54,.17,2.45,.34,3,.47,1.46,1.3,2.69,2.39,3.75,.27,.26,.55,.49,.85,.72,.09,0,.09-.08,.11-.13,.04-.12,.07-.25,.09-.37l.19-1.43-.11-13.37Z"/><path class="k" d="M157.14,15.73c.02-.22,.12-.4,.24-.58-.11-.05-.2-.14-.27-.25-.06-.1-.1-.2-.14-.31-.13-.4-.16-.82-.2-1.23v-.25s-.06,.36-.06,.41c-.03,.43-.08,.86-.17,1.28-.03,.17-.05,.34-.15,.49,0,.02,0,.04,0,.07,.17,.5,.22,1.02,.25,1.54v.19c0,.23,0,.18,.18,.26,.08,.03,.16,.04,.24,.09,.06,0,.07-.05,.07-.09l-.03-.31v-.87c0-.15,.02-.3,.04-.45h0Z"/></g><text class="u" transform="translate(141.7 23.24)"><tspan x="0" y="0">MongoDB</tspan></text></g></svg>