<svg width="270" height="25" viewBox="0 0 270 25" fill="none" xmlns="http://www.w3.org/2000/svg">
<path d="M19.021 4.10368C16.8994 1.06884 12.7089 0.16929 9.67935 2.09875L4.35904 5.48846C4.00113 5.71335 3.66723 5.97482 3.36344 6.2687C3.05927 6.56258 2.78673 6.88734 2.55003 7.23763C2.31333 7.58792 2.11359 7.96184 1.95389 8.3533C1.79457 8.74494 1.67628 9.15204 1.60093 9.56807C1.53803 9.91684 1.50373 10.2706 1.49916 10.625C1.4942 10.9799 1.51898 11.3344 1.57272 11.6847C1.62646 12.0354 1.70918 12.3811 1.81972 12.718C1.93025 13.055 2.06862 13.382 2.23328 13.6961C2.12 13.8682 2.01543 14.046 1.91996 14.2286C1.82429 14.4112 1.73815 14.5987 1.66153 14.79C1.58492 14.9814 1.51821 15.1765 1.46142 15.3748C1.40463 15.573 1.35812 15.7738 1.32153 15.9766C1.16949 16.8293 1.18957 17.7039 1.38061 18.5487C1.4759 18.9699 1.61274 19.3808 1.7896 19.7749C1.96646 20.1691 2.18182 20.5449 2.43339 20.8963C4.55496 23.9312 8.74512 24.8307 11.7746 22.9012L17.0949 19.5256C17.4528 19.3004 17.786 19.0385 18.0898 18.7443C18.3935 18.4502 18.666 18.1255 18.9028 17.7753C19.1395 17.4254 19.3392 17.0515 19.4989 16.66C19.6587 16.269 19.7772 15.8619 19.853 15.446C19.9159 15.0973 19.9499 14.7439 19.9544 14.3894C19.959 14.035 19.9342 13.6805 19.8801 13.3302C19.8264 12.9799 19.7437 12.6346 19.6327 12.2976C19.5218 11.961 19.3835 11.634 19.2188 11.3199C19.332 11.148 19.4368 10.97 19.5325 10.7874C19.6278 10.6048 19.7143 10.4173 19.7909 10.226C19.8675 10.0346 19.9346 9.83946 19.9918 9.64126C20.0486 9.44343 20.0959 9.24256 20.1328 9.03978C20.2083 8.6144 20.2411 8.18254 20.2312 7.75068C20.2213 7.31881 20.1683 6.88924 20.073 6.46767C19.9777 6.04648 19.8409 5.63559 19.664 5.24146C19.4874 4.84727 19.272 4.47163 19.021 4.12007" fill="#FF3E00"/>
<path d="M9.15951 21.1898C8.74312 21.298 8.31265 21.3419 7.88299 21.3202C7.45342 21.2981 7.02956 21.2112 6.62629 21.0614C6.223 20.9118 5.84486 20.7017 5.5049 20.4382C5.16521 20.1745 4.86767 19.8606 4.6225 19.5074C4.47117 19.2958 4.34158 19.0702 4.23561 18.8331C4.12934 18.5961 4.04698 18.3492 3.98976 18.0959C3.93297 17.8424 3.90095 17.584 3.89523 17.3244C3.88952 17.0648 3.90972 16.8053 3.95546 16.5495C3.9627 16.508 3.97109 16.4664 3.98023 16.4252C3.989 16.3837 3.99891 16.3425 4.00958 16.3017C4.01987 16.2606 4.03131 16.2198 4.04351 16.179C4.05532 16.1386 4.06828 16.0982 4.08162 16.0582L4.18187 15.7521L4.45517 15.956C4.61182 16.0704 4.77344 16.1782 4.93925 16.2789C5.10505 16.3799 5.27505 16.4737 5.44886 16.5598C5.6223 16.6463 5.79992 16.7256 5.98021 16.7969C6.1605 16.8685 6.34384 16.9322 6.52985 16.9882L6.73377 17.0473L6.71548 17.2512C6.70565 17.39 6.72009 17.5295 6.75817 17.6633C6.77685 17.7304 6.80162 17.7952 6.83173 17.8577C6.86185 17.9202 6.89729 17.98 6.9377 18.0364C7.01173 18.1428 7.10158 18.2373 7.20413 18.3166C7.30629 18.3959 7.42025 18.4591 7.54185 18.5041C7.66344 18.5491 7.79075 18.575 7.92034 18.5815C8.04956 18.5884 8.17916 18.575 8.30456 18.5422C8.33353 18.5346 8.36173 18.5258 8.38994 18.5159C8.41815 18.506 8.44597 18.4954 8.47303 18.4832C8.50048 18.4713 8.52716 18.4584 8.55384 18.4443C8.58014 18.4306 8.60568 18.4157 8.63084 18.3997L13.9431 15.0096C14.0083 14.9688 14.0689 14.9212 14.1242 14.8678C14.1795 14.8141 14.2286 14.755 14.2717 14.6913C14.3148 14.6277 14.3506 14.5594 14.3796 14.4882C14.4082 14.4169 14.4295 14.3429 14.4432 14.2675C14.4566 14.1901 14.4623 14.112 14.4604 14.0334C14.4585 13.9553 14.4486 13.8775 14.431 13.8009C14.4139 13.7247 14.3887 13.6504 14.3563 13.5787C14.3243 13.5074 14.2847 13.4396 14.2389 13.3759C14.165 13.2696 14.0754 13.1754 13.9729 13.0961C13.8703 13.0169 13.7564 12.9536 13.6352 12.9086C13.5137 12.8636 13.386 12.8374 13.2567 12.8309C13.1271 12.8244 12.9975 12.8377 12.8721 12.8701C12.8435 12.8777 12.8149 12.8865 12.7867 12.8964C12.7585 12.9063 12.731 12.917 12.7036 12.9288C12.6761 12.941 12.6495 12.954 12.6232 12.9681C12.5969 12.9818 12.5709 12.997 12.5458 13.0131L10.5058 14.3083C10.4227 14.3609 10.3373 14.4104 10.2504 14.4569C10.1631 14.503 10.0747 14.5461 9.98436 14.5857C9.89402 14.6254 9.80216 14.6616 9.70915 14.694C9.61615 14.7268 9.522 14.7557 9.42671 14.7813C9.01086 14.8888 8.58128 14.9322 8.15247 14.9101C7.72366 14.888 7.30095 14.8007 6.89844 14.6517C6.49593 14.5023 6.11857 14.2922 5.77934 14.0292C5.4401 13.7662 5.14279 13.4533 4.8977 13.1007C4.74714 12.8892 4.61792 12.6631 4.51234 12.4261C4.40638 12.189 4.32443 11.942 4.26763 11.6889C4.21084 11.4354 4.17958 11.177 4.17425 10.9174C4.16853 10.6582 4.18873 10.3986 4.23485 10.1433C4.32497 9.64044 4.51891 9.16194 4.80431 8.73828C5.08991 8.31462 5.46082 7.95526 5.8933 7.68321L11.222 4.2935C11.3047 4.2409 11.3893 4.19135 11.4759 4.14485C11.5624 4.09873 11.6508 4.05565 11.7404 4.01601C11.8302 3.97636 11.9215 3.94024 12.0141 3.90776C12.1063 3.87498 12.2001 3.84563 12.295 3.82009C12.7112 3.71222 13.1416 3.66801 13.5707 3.68974C14.0003 3.71184 14.4238 3.79875 14.8271 3.94855C15.2303 4.09796 15.6081 4.30837 15.9481 4.57175C16.2876 4.83557 16.5851 5.14957 16.8301 5.50294C16.981 5.71411 17.111 5.93976 17.2174 6.17684C17.3237 6.41393 17.406 6.66054 17.4636 6.91402C17.5208 7.16749 17.5528 7.42592 17.5585 7.6855C17.5646 7.94507 17.5448 8.20464 17.499 8.46041C17.491 8.50233 17.4826 8.54426 17.4731 8.58581C17.464 8.62736 17.4541 8.6689 17.4434 8.71007C17.4331 8.75162 17.4217 8.79278 17.4098 8.83357C17.398 8.87473 17.3858 8.91552 17.3725 8.95592L17.2707 9.262L16.9993 9.05807C16.8423 8.94258 16.6803 8.83433 16.5141 8.73256C16.3479 8.63117 16.1772 8.53664 16.003 8.44935C15.6542 8.27538 15.2915 8.13105 14.9185 8.01787L14.7142 7.95879L14.7329 7.75487C14.7386 7.68511 14.7383 7.61498 14.7318 7.54561C14.7257 7.47624 14.7131 7.40725 14.6948 7.33978C14.6761 7.27269 14.6521 7.20675 14.622 7.14386C14.5923 7.08059 14.5568 7.02036 14.5164 6.96319C14.442 6.85872 14.3522 6.76618 14.25 6.68875C14.1479 6.61096 14.0345 6.54926 13.9138 6.50579C13.6712 6.41777 13.4075 6.40593 13.1579 6.47186C13.129 6.47949 13.1004 6.48825 13.0726 6.49778C13.0444 6.50769 13.0165 6.51875 12.9891 6.53056C12.962 6.54238 12.935 6.55572 12.9087 6.56944C12.8824 6.58355 12.8564 6.59841 12.8313 6.61442L7.50907 9.99841C7.44427 10.0392 7.38366 10.0868 7.32877 10.1402C7.27389 10.1936 7.22433 10.2526 7.18126 10.3159C7.13855 10.3796 7.10241 10.4474 7.07339 10.5183C7.04442 10.5896 7.02308 10.6632 7.00936 10.7386C6.99602 10.816 6.9903 10.8945 6.9922 10.9731C6.99678 11.1302 7.03213 11.285 7.09626 11.4285C7.1286 11.5 7.16779 11.5682 7.21328 11.6321C7.28685 11.7373 7.37604 11.8311 7.47781 11.9096C7.57937 11.9885 7.69235 12.0514 7.81285 12.0963C8.05518 12.1864 8.31912 12.2009 8.56985 12.1379C8.59844 12.1299 8.62702 12.1211 8.65523 12.1112C8.68306 12.1013 8.71088 12.0902 8.73832 12.0784C8.76564 12.0666 8.79247 12.0536 8.81875 12.0396C8.84505 12.0258 8.87097 12.011 8.89613 11.995L10.9361 10.702C11.0196 10.6487 11.1046 10.5984 11.1919 10.5519C11.2788 10.505 11.3676 10.4619 11.4583 10.4219C11.5487 10.3822 11.6407 10.3461 11.7339 10.3136C11.8273 10.2809 11.9218 10.2519 12.0175 10.2267C12.4337 10.1185 12.8637 10.0743 13.2933 10.0956C13.7228 10.1173 14.1463 10.2042 14.5496 10.3537C14.9525 10.5031 15.3306 10.7131 15.6702 10.9769C16.0102 11.2402 16.3075 11.5539 16.5526 11.9073C16.7035 12.1188 16.8331 12.3445 16.9395 12.5816C17.0458 12.8185 17.1283 13.0655 17.1857 13.3187C17.2429 13.5718 17.2749 13.8303 17.281 14.0898C17.2871 14.3498 17.2669 14.6094 17.2215 14.8648C17.1766 15.1155 17.1057 15.3609 17.01 15.597C16.9144 15.8331 16.7943 16.0586 16.6517 16.2697C16.5095 16.4809 16.3456 16.6768 16.1627 16.8541C15.9797 17.0313 15.7788 17.1891 15.5631 17.3248L10.2405 20.7145C10.157 20.7675 10.0716 20.8174 9.98474 20.8639C9.89745 20.9104 9.80864 20.9535 9.71792 20.9931C9.62759 21.0332 9.53572 21.0694 9.44234 21.1021C9.34933 21.1349 9.2548 21.1643 9.15951 21.1898Z" fill="white"/>
<g clip-path="url(#clip0_20_57)">
<path d="M30.1438 4.18401L41.707 0.064064L53.5817 4.11076L51.659 19.4095L41.707 24.921L31.9108 19.4827L30.1438 4.18401Z" fill="#E23237"/>
<path d="M53.5817 4.11076L41.707 0.064064V24.921L51.659 19.4187L53.5817 4.11076Z" fill="#B52E31"/>
<path d="M41.7253 2.96636L34.52 18.9975L37.2117 18.9517L38.6583 15.3353H45.1219L46.7059 18.9975L49.2785 19.0433L41.7253 2.96636ZM41.7436 8.10258L44.1789 13.1929H39.6012L41.7436 8.10258Z" fill="white"/>
</g>
<path fill-rule="evenodd" clip-rule="evenodd" d="M70.3129 5.41484C71.2304 1.80495 73.514 0 77.1737 0C82.6584 0 83.3464 4.05864 86.0888 4.73674C87.9137 5.18548 89.5192 4.50738 90.8853 2.71241C89.9679 6.3223 87.6843 8.12724 84.0245 8.12724C78.5399 8.12724 77.8518 4.06861 75.1095 3.39051C73.2846 2.94176 71.6791 3.61986 70.3129 5.41484ZM63.4521 13.5321C64.3696 9.92222 66.6532 8.11727 70.3129 8.11727C75.7976 8.11727 76.4857 12.1759 79.228 12.854C81.0529 13.3028 82.6584 12.6247 84.0245 10.8297C83.1071 14.4396 80.8235 16.2445 77.1638 16.2445C71.6791 16.2445 70.991 12.1859 68.2487 11.5078C66.4238 11.059 64.8183 11.7371 63.4521 13.5321Z" fill="url(#paint0_linear_20_57)"/>
<path d="M63.0251 18.176V17.5924H67.0996V18.176H65.3913V23.0251H64.7334V18.176H63.0251ZM68.6747 23.1206C68.4165 23.1206 68.1821 23.072 67.9717 22.9747C67.7612 22.8757 67.5941 22.7333 67.4703 22.5476C67.3465 22.3602 67.2846 22.1338 67.2846 21.8686C67.2846 21.6351 67.3306 21.4459 67.4226 21.3009C67.5145 21.1541 67.6375 21.0391 67.7913 20.956C67.9452 20.8729 68.1149 20.811 68.3006 20.7703C68.4881 20.7279 68.6764 20.6943 68.8657 20.6695C69.1132 20.6377 69.314 20.6138 69.4678 20.5979C69.6234 20.5802 69.7366 20.551 69.8074 20.5104C69.8799 20.4697 69.9161 20.399 69.9161 20.2982V20.2769C69.9161 20.0152 69.8445 19.8118 69.7013 19.6668C69.5598 19.5218 69.3449 19.4493 69.0566 19.4493C68.7578 19.4493 68.5235 19.5147 68.3537 19.6456C68.1839 19.7765 68.0645 19.9162 67.9956 20.0647L67.4014 19.8525C67.5075 19.6049 67.6489 19.4122 67.8258 19.2742C68.0044 19.1345 68.1989 19.0372 68.4094 18.9824C68.6216 18.9258 68.8303 18.8975 69.0354 18.8975C69.1663 18.8975 69.3166 18.9134 69.4864 18.9453C69.6579 18.9753 69.8233 19.0381 69.9824 19.1336C70.1434 19.2291 70.2769 19.3732 70.383 19.566C70.4891 19.7588 70.5422 20.017 70.5422 20.3406V23.0251H69.9161V22.4734H69.8843C69.8418 22.5618 69.7711 22.6564 69.6721 22.7572C69.573 22.858 69.4413 22.9438 69.2768 23.0145C69.1124 23.0853 68.9116 23.1206 68.6747 23.1206ZM68.7702 22.5583C69.0177 22.5583 69.2264 22.5096 69.3962 22.4124C69.5677 22.3151 69.6968 22.1895 69.7835 22.0357C69.8719 21.8818 69.9161 21.72 69.9161 21.5502V20.9772C69.8896 21.0091 69.8312 21.0383 69.741 21.0648C69.6526 21.0895 69.55 21.1117 69.4333 21.1311C69.3184 21.1488 69.2061 21.1647 69.0964 21.1789C68.9886 21.1912 68.901 21.2018 68.8338 21.2107C68.6711 21.2319 68.519 21.2664 68.3776 21.3141C68.2378 21.3601 68.1247 21.43 68.038 21.5237C67.9531 21.6157 67.9107 21.7412 67.9107 21.9004C67.9107 22.1179 67.9911 22.2824 68.1521 22.3938C68.3148 22.5034 68.5208 22.5583 68.7702 22.5583ZM71.6848 23.0251V18.9506H72.3108V23.0251H71.6848ZM72.0031 18.2715C71.8811 18.2715 71.7759 18.2299 71.6875 18.1468C71.6008 18.0637 71.5575 17.9638 71.5575 17.8471C71.5575 17.7303 71.6008 17.6304 71.6875 17.5473C71.7759 17.4642 71.8811 17.4226 72.0031 17.4226C72.1252 17.4226 72.2295 17.4642 72.3162 17.5473C72.4046 17.6304 72.4488 17.7303 72.4488 17.8471C72.4488 17.9638 72.4046 18.0637 72.3162 18.1468C72.2295 18.2299 72.1252 18.2715 72.0031 18.2715ZM74.0835 17.5924V23.0251H73.4575V17.5924H74.0835ZM76.1533 23.0251L74.9118 18.9506H75.5697L76.4504 22.0702H76.4928L77.3629 18.9506H78.0314L78.8909 22.0595H78.9333L79.814 18.9506H80.4719L79.2304 23.0251H78.615L77.7237 19.8949H77.66L76.7687 23.0251H76.1533ZM81.2995 23.0251V18.9506H81.9256V23.0251H81.2995ZM81.6178 18.2715C81.4958 18.2715 81.3906 18.2299 81.3022 18.1468C81.2155 18.0637 81.1722 17.9638 81.1722 17.8471C81.1722 17.7303 81.2155 17.6304 81.3022 17.5473C81.3906 17.4642 81.4958 17.4226 81.6178 17.4226C81.7399 17.4226 81.8442 17.4642 81.9309 17.5473C82.0193 17.6304 82.0635 17.7303 82.0635 17.8471C82.0635 17.9638 82.0193 18.0637 81.9309 18.1468C81.8442 18.2299 81.7399 18.2715 81.6178 18.2715ZM83.6982 20.574V23.0251H83.0722V18.9506H83.677V19.5872H83.7301C83.8255 19.3803 83.9706 19.2141 84.1651 19.0885C84.3596 18.9612 84.6107 18.8975 84.9185 18.8975C85.1943 18.8975 85.4357 18.9541 85.6426 19.0673C85.8496 19.1787 86.0105 19.3485 86.1254 19.5766C86.2404 19.803 86.2979 20.0895 86.2979 20.4361V23.0251H85.6718V20.4785C85.6718 20.1584 85.5887 19.9091 85.4225 19.7305C85.2562 19.5501 85.0281 19.4599 84.7381 19.4599C84.5382 19.4599 84.3596 19.5032 84.2022 19.5899C84.0466 19.6765 83.9237 19.803 83.8335 19.9692C83.7433 20.1355 83.6982 20.3371 83.6982 20.574ZM88.9804 23.11C88.6409 23.11 88.3411 23.0242 88.0811 22.8527C87.8212 22.6794 87.6178 22.4353 87.471 22.1206C87.3242 21.804 87.2508 21.43 87.2508 20.9985C87.2508 20.5705 87.3242 20.1991 87.471 19.8843C87.6178 19.5695 87.8221 19.3264 88.0838 19.1548C88.3455 18.9833 88.6479 18.8975 88.991 18.8975C89.2563 18.8975 89.4658 18.9417 89.6197 19.0302C89.7753 19.1168 89.8938 19.2159 89.9752 19.3273C90.0583 19.4369 90.1228 19.5271 90.1688 19.5978H90.2219V17.5924H90.8479V23.0251H90.2431V22.3991H90.1688C90.1228 22.4734 90.0574 22.5671 89.9725 22.6803C89.8876 22.7917 89.7665 22.8916 89.6091 22.98C89.4517 23.0667 89.2421 23.11 88.9804 23.11ZM89.0653 22.5476C89.3164 22.5476 89.5286 22.4822 89.7019 22.3513C89.8752 22.2187 90.007 22.0357 90.0972 21.8022C90.1874 21.567 90.2325 21.2956 90.2325 20.9879C90.2325 20.6837 90.1883 20.4175 90.0998 20.1894C90.0114 19.9595 89.8806 19.7809 89.7072 19.6536C89.5339 19.5245 89.32 19.4599 89.0653 19.4599C88.8 19.4599 88.579 19.528 88.4021 19.6642C88.227 19.7986 88.0953 19.9816 88.0069 20.2133C87.9202 20.4432 87.8769 20.7014 87.8769 20.9879C87.8769 21.2779 87.9211 21.5414 88.0095 21.7784C88.0997 22.0136 88.2323 22.201 88.4074 22.3407C88.5843 22.4787 88.8036 22.5476 89.0653 22.5476Z" fill="#52A5B3"/>
<path d="M129.341 14.3234C128.177 14.3234 127.167 14.6089 126.322 15.0261C126.014 14.4112 125.696 13.8622 125.641 13.4669C125.586 12.9947 125.509 12.7092 125.586 12.1491C125.663 11.5891 125.981 10.7985 125.981 10.7326C125.981 10.6777 125.904 10.3922 125.234 10.3812C124.565 10.3702 123.983 10.513 123.917 10.6887C123.851 10.8644 123.719 11.2707 123.631 11.6879C123.51 12.3029 122.292 14.4661 121.589 15.6081C121.358 15.1689 121.161 14.7736 121.128 14.4661C121.073 13.9939 120.996 13.7084 121.073 13.1484C121.15 12.5884 121.468 11.7978 121.468 11.7319C121.468 11.677 121.391 11.3915 120.721 11.3805C120.051 11.3805 119.469 11.5123 119.404 11.6879C119.338 11.8636 119.272 12.2809 119.118 12.6872C118.986 13.0935 117.35 16.7172 116.933 17.6616C116.713 18.1447 116.527 18.5291 116.395 18.7926C116.263 19.0561 116.395 18.8146 116.373 18.8365C116.252 19.0561 116.186 19.1769 116.186 19.1769C116.098 19.3416 115.999 19.5064 115.956 19.5064C115.923 19.5064 115.857 19.0671 115.967 18.4742C116.208 17.2114 116.79 15.2567 116.79 15.1799C116.79 15.1469 116.9 14.8065 116.417 14.6308C115.945 14.4551 115.769 14.7516 115.736 14.7516C115.703 14.7516 115.659 14.8505 115.659 14.8505C115.659 14.8505 116.186 12.6433 114.649 12.6433C113.683 12.6433 112.354 13.6975 111.695 14.6528C111.278 14.8834 110.388 15.3666 109.455 15.8827C109.092 16.0803 108.73 16.289 108.379 16.4756L108.302 16.3988C106.435 14.4112 102.987 13.0057 103.13 10.3373C103.185 9.37098 103.525 6.80144 109.751 3.70482C114.857 1.16823 118.942 1.86003 119.645 3.40834C120.655 5.62648 117.46 9.74433 112.156 10.3373C110.136 10.5679 109.071 9.78825 108.807 9.49177C108.521 9.1843 108.489 9.17332 108.379 9.22822C108.214 9.31607 108.313 9.59059 108.379 9.75531C108.532 10.1616 109.191 10.8973 110.289 11.2597C111.256 11.5781 113.628 11.7538 116.494 10.6448C119.711 9.40392 122.215 5.94493 121.479 3.05695C120.732 0.114063 115.857 -0.841277 111.245 0.79488C108.5 1.77218 105.535 3.29853 103.393 5.29706C100.857 7.66893 100.451 9.74433 100.615 10.6008C101.208 13.6645 105.436 15.674 107.127 17.1455C107.039 17.1894 106.962 17.2333 106.896 17.2772C106.051 17.6945 102.822 19.3856 102.021 21.1645C101.109 23.185 102.164 24.6345 102.866 24.8321C105.041 25.4361 107.27 24.3489 108.478 22.5591C109.674 20.7692 109.532 18.4412 108.983 17.3761L108.961 17.3321L109.631 16.9368C110.059 16.6843 110.487 16.4427 110.86 16.245C110.652 16.816 110.498 17.4859 110.421 18.4632C110.333 19.6052 110.795 21.0986 111.42 21.6806C111.695 21.9331 112.024 21.9441 112.222 21.9441C112.936 21.9441 113.265 21.3512 113.628 20.6374C114.067 19.7699 114.462 18.7706 114.462 18.7706C114.462 18.7706 113.968 21.4829 115.308 21.4829C115.802 21.4829 116.285 20.846 116.505 20.5276C116.505 20.5276 116.516 20.5166 116.549 20.4727C116.57 20.4288 116.603 20.3958 116.625 20.3519C116.823 20.0005 117.262 19.2209 117.91 17.9361C118.756 16.278 119.557 14.2136 119.557 14.2136C119.557 14.2136 119.634 14.7187 119.876 15.5532C120.018 16.0474 120.337 16.5854 120.568 17.1125C120.37 17.387 120.26 17.5408 120.26 17.5408C120.106 17.7604 119.931 17.98 119.744 18.1996C119.074 18.9903 118.284 19.9017 118.185 20.1652C118.064 20.4727 118.086 20.7033 118.327 20.879C118.503 21.0107 118.822 21.0327 119.151 21.0107C119.755 20.9668 120.172 20.8241 120.381 20.7252C120.71 20.6045 121.073 20.4288 121.435 20.1762C122.083 19.693 122.489 19.0122 122.445 18.1008C122.423 17.5957 122.259 17.1015 122.061 16.6294C122.116 16.5415 122.182 16.4646 122.237 16.3658C123.269 14.8614 124.059 13.2033 124.059 13.2033C124.059 13.2033 124.136 13.7084 124.378 14.543C124.499 14.9712 124.751 15.4324 124.971 15.8827C124.005 16.6733 123.401 17.5847 123.192 18.1777C122.808 19.2867 123.104 19.7919 123.675 19.9017C123.928 19.9566 124.29 19.8358 124.565 19.715C124.905 19.6052 125.311 19.4185 125.696 19.133C126.344 18.6499 126.969 17.98 126.936 17.0796C126.915 16.6623 126.805 16.256 126.651 15.8607C127.475 15.5203 128.529 15.3226 129.879 15.4873C132.778 15.8278 133.349 17.6396 133.24 18.3973C133.13 19.155 132.526 19.5722 132.317 19.704C132.119 19.8248 132.054 19.8687 132.065 19.9676C132.087 20.0993 132.185 20.0993 132.361 20.0664C132.603 20.0225 133.887 19.4515 133.942 18.0569C134.019 16.267 132.317 14.3124 129.308 14.3343L129.341 14.3234ZM106.984 21.8563C106.029 22.9104 104.678 23.3058 104.107 22.9654C103.492 22.603 103.734 21.0657 104.909 19.9456C105.623 19.2648 106.556 18.6389 107.171 18.2545C107.303 18.1667 107.511 18.0459 107.764 17.8922C107.808 17.8702 107.83 17.8482 107.83 17.8482C107.874 17.8263 107.929 17.7933 107.983 17.7604C108.423 19.3526 108.005 20.7472 106.995 21.8453L106.984 21.8563ZM113.99 17.0906C113.661 17.9031 112.958 20.0005 112.53 19.8797C112.167 19.7809 111.948 18.1996 112.453 16.6403C112.716 15.8497 113.265 14.9163 113.595 14.554C114.122 13.972 114.693 13.7743 114.835 14.0159C115 14.3234 114.188 16.5964 113.979 17.1015L113.99 17.0906ZM119.766 19.8578C119.623 19.9346 119.491 19.9785 119.437 19.9456C119.393 19.9236 119.491 19.8248 119.491 19.8248C119.491 19.8248 120.216 19.0452 120.502 18.6938C120.666 18.4851 120.864 18.2436 121.073 17.969V18.0459C121.073 18.9793 120.172 19.6052 119.766 19.8687V19.8578ZM124.224 18.8365C124.125 18.7597 124.136 18.5181 124.488 17.7604C124.619 17.4639 124.938 16.9588 125.476 16.4866C125.542 16.6843 125.575 16.8709 125.575 17.0466C125.575 18.2216 124.729 18.6608 124.224 18.8365Z" fill="#CF659B"/>
<path d="M165.855 0H145.035C143.88 0 142.945 0.935597 142.945 2.08972V22.9103C142.945 24.0644 143.88 25 145.035 25H165.855C167.009 25 167.945 24.0644 167.945 22.9103V2.08972C167.945 0.935597 167.009 0 165.855 0Z" fill="#2479BF"/>
<path d="M148.426 12.5383V13.5558H151.676V22.8118H153.984V13.5667H157.234V12.5711C157.234 12.0131 157.234 11.5536 157.212 11.5427C157.212 11.5208 155.232 11.5208 152.825 11.5208L148.448 11.5427V12.5711H148.426V12.5383ZM163.032 11.488C163.667 11.6411 164.159 11.9256 164.597 12.3851C164.827 12.6368 165.177 13.0744 165.199 13.1838C165.199 13.2166 164.116 13.9497 163.459 14.3545C163.437 14.3764 163.339 14.267 163.229 14.1028C162.901 13.6433 162.573 13.4354 162.059 13.4026C161.304 13.3479 160.811 13.7418 160.811 14.3982C160.811 14.5952 160.844 14.7155 160.921 14.8687C161.085 15.2079 161.402 15.4158 162.376 15.8424C164.159 16.6083 164.936 17.1225 165.407 17.8446C165.943 18.6543 166.052 19.9344 165.702 20.8862C165.297 21.9256 164.323 22.6368 162.934 22.8665C162.496 22.9431 161.501 22.9322 161.03 22.8446C160.035 22.6586 159.072 22.1554 158.481 21.5098C158.251 21.2582 157.803 20.5908 157.835 20.547L158.076 20.3939L159.017 19.8468L159.728 19.4311L159.892 19.6499C160.1 19.9781 160.56 20.4158 160.833 20.558C161.643 20.9737 162.737 20.919 163.273 20.4376C163.503 20.2298 163.601 20 163.601 19.6827C163.601 19.3982 163.558 19.267 163.415 19.0481C163.218 18.7746 162.814 18.5449 161.687 18.0525C160.396 17.5055 159.838 17.1554 159.334 16.6193C159.039 16.291 158.776 15.7877 158.645 15.372C158.547 15.0109 158.525 14.1247 158.612 13.7637C158.886 12.5164 159.827 11.6411 161.172 11.3895C161.61 11.302 162.639 11.3348 163.076 11.4551H163.065L163.032 11.488Z" fill="white"/>
<path d="M201.956 12.4945C201.956 19.3979 196.354 25 189.45 25C183.076 25 177.816 20.236 177.044 14.0715C176.978 13.5532 176.945 13.0238 176.945 12.4945C176.945 11.524 177.055 10.5646 177.265 9.64932C178.555 4.12439 183.517 0 189.45 0C195.383 0 200.313 4.10234 201.614 9.61623C201.79 10.3441 201.89 11.094 201.934 11.8438C201.945 12.0644 201.956 12.285 201.956 12.5055V12.4945Z" fill="#F3F3F3"/>
<path d="M188.822 13.498V10.2448L186.01 8.62373L183.198 10.2448V13.498L186.01 15.1191L188.822 13.498Z" fill="#3E8840"/>
<path d="M199.916 13.0128L201.746 14.0715L199.916 15.1301L197.104 13.509V10.2559L199.916 8.63477L201.625 9.61624C201.802 10.3441 201.901 11.094 201.945 11.8439L200.897 12.4504V11.3145L199.916 10.7521L198.934 11.3145V12.4504L199.916 13.0128Z" fill="#333333"/>
<path d="M200.456 12.1967V11.5682L199.905 11.2483L199.353 11.5682V12.1967L199.905 12.5165L200.456 12.1967Z" fill="#66A060"/>
<path d="M181.863 10.2559V14.5457L179.988 13.476V11.2814L179.051 10.7411L178.114 11.2814V13.476L177.044 14.0825C176.978 13.5642 176.945 13.0349 176.945 12.5055C176.945 11.524 177.055 10.5757 177.265 9.66035L179.04 8.63477L181.852 10.2559H181.863Z" fill="#333333"/>
<path d="M186.01 8.62373L188.822 13.498L186.01 15.1191L183.198 10.2448L186.01 8.62373Z" fill="#6DA75D"/>
<path d="M183.198 13.498L184.168 11.921L183.198 10.2448V13.498Z" fill="#55A345"/>
<path d="M187.884 11.8769L188.822 10.2559L186.01 8.63477L187.884 11.888V11.8769Z" fill="#649D58"/>
<path d="M193.873 4.86325V9.17512L192.924 8.63476L190.112 10.2558V13.509L192.924 15.1301L195.736 13.509V5.85576L193.862 4.85223L193.873 4.86325ZM193.873 12.4283L192.935 12.9687L191.998 12.4283V11.3476L192.935 10.8072L193.873 11.3476V12.4283Z" fill="#333333"/>
<path d="M190.73 17.5121C190.73 17.5121 190.675 17.0379 190.167 17.0379C189.66 17.0379 189.307 17.1041 189.307 17.3908C189.307 17.6775 190.3 17.6775 190.675 17.7878C191.049 17.8981 191.38 18.1848 191.215 18.6921C191.049 19.1994 190.542 19.2545 189.759 19.2545C188.976 19.2545 188.8 18.6039 188.8 18.3502H189.241C189.241 18.3502 189.186 18.7472 189.704 18.8134C190.222 18.8796 190.719 18.9127 190.785 18.5157C190.873 17.9863 189.109 18.251 188.954 17.7327C188.822 17.2916 188.899 16.7181 189.781 16.6299C190.664 16.5417 191.149 16.9277 191.149 17.5121H190.73Z" fill="#66A060"/>
<path d="M186.451 19.5854L187.432 20.1478C187.929 20.4345 188.535 20.0816 188.535 19.5082V16.6961H188.138V19.3979C188.138 19.7067 187.807 19.9052 187.532 19.7508L186.848 19.3538V16.4755L189.34 15.0419L191.832 16.4755V19.3538L189.34 20.7874L188.623 20.3683L188.149 20.5558L189.34 21.2395L192.229 19.5743V16.2329L189.34 14.5677L186.451 16.2329V19.5743V19.5854Z" fill="#66A060"/>
<path d="M235.155 14.9748C235.014 14.5377 234.633 14.2275 234.14 14.157C233.9 14.1288 233.646 14.1429 233.322 14.1993C232.772 14.3121 232.363 14.3544 232.067 14.3685C233.195 12.465 234.111 10.3077 234.633 8.26321C235.479 4.96379 235.028 3.46918 234.492 2.79238C233.082 1.00167 231.038 0.0287628 228.556 0.000562638C227.231 -0.0135374 226.074 0.240264 225.468 0.437665C224.904 0.338965 224.298 0.282564 223.663 0.268464C222.479 0.254364 221.421 0.508166 220.519 1.04397C220.025 0.874768 219.222 0.635066 218.305 0.479965C216.134 0.127463 214.385 0.395365 213.102 1.31187C211.551 2.41168 210.832 4.30109 210.973 6.966C211.015 7.81201 211.481 10.3782 212.228 12.8034C212.651 14.1993 213.116 15.3555 213.582 16.258C214.244 17.527 214.963 18.2743 215.767 18.5281C216.218 18.6832 217.036 18.7819 217.896 18.0628C218.009 18.1897 218.15 18.3307 218.347 18.4435C218.587 18.5986 218.897 18.7255 219.194 18.796C220.265 19.0639 221.28 18.9934 222.14 18.6268C222.14 18.7819 222.14 18.9229 222.14 19.0498C222.14 19.2613 222.14 19.4587 222.155 19.642C222.211 20.911 222.296 21.898 222.549 22.5889C222.549 22.6312 222.578 22.6876 222.606 22.744C222.733 23.1388 222.944 23.7874 223.494 24.3091C224.058 24.8449 224.735 25 225.355 25C225.665 25 225.962 24.9577 226.229 24.9013C227.16 24.7039 228.218 24.3937 228.993 23.308C229.712 22.2787 230.065 20.7277 230.135 18.2743L230.163 18.0769V17.95H230.389C231.334 18.0064 232.504 17.809 233.209 17.4847C233.773 17.2168 235.578 16.2721 235.155 14.9748Z" fill="#010101"/>
<path d="M233.533 15.2286C230.713 15.8068 230.516 14.8479 230.516 14.8479C233.505 10.4205 234.746 4.80869 233.674 3.42688C230.741 -0.323739 225.651 1.45287 225.567 1.49517H225.539C224.975 1.38237 224.354 1.31187 223.649 1.29777C222.366 1.28367 221.407 1.63617 220.66 2.18607C220.66 2.18607 211.594 -1.55045 212.017 6.8814C212.101 8.67211 214.583 20.4598 217.544 16.8925C218.629 15.5952 219.673 14.4954 219.673 14.4954C220.195 14.8338 220.815 15.0171 221.464 14.9466L221.52 14.9043C221.506 15.0594 221.52 15.2286 221.534 15.4119C220.773 16.258 220.998 16.4131 219.475 16.7233C217.939 17.0476 218.841 17.6116 219.433 17.7526C220.152 17.9359 221.816 18.1897 222.93 16.6105L222.888 16.7938C223.184 17.0335 223.395 18.3448 223.367 19.5433C223.339 20.7418 223.311 21.5596 223.55 22.1941C223.79 22.8286 224.016 24.2809 226.018 23.8438C227.696 23.4913 228.556 22.5607 228.683 21.0097C228.767 19.9099 228.965 20.065 228.979 19.078L229.134 18.6127C229.317 17.1181 229.162 16.6387 230.192 16.8643L230.445 16.8925C231.207 16.9207 232.194 16.7656 232.786 16.4977C234.041 15.9196 234.788 14.9466 233.547 15.2004" fill="#356892"/>
<path d="M221.196 7.6992C220.942 7.6569 220.716 7.6992 220.589 7.7838C220.519 7.8402 220.505 7.8966 220.505 7.92481C220.491 8.02351 220.561 8.15041 220.603 8.20681C220.73 8.37601 220.914 8.48881 221.097 8.51701C221.125 8.51701 221.153 8.51701 221.182 8.51701C221.492 8.51701 221.774 8.27731 221.788 8.09401C221.816 7.86841 221.492 7.7274 221.182 7.6851M229.613 7.6851C229.585 7.5159 229.275 7.4595 228.979 7.5018C228.683 7.5441 228.401 7.671 228.429 7.85431C228.443 7.99531 228.697 8.22091 228.979 8.22091C229.007 8.22091 229.021 8.22091 229.049 8.22091C229.247 8.19271 229.388 8.06581 229.458 7.99531C229.557 7.88251 229.613 7.7697 229.613 7.6851Z" fill="white"/>
<path d="M234.478 15.1582C234.365 14.8339 234.027 14.721 233.449 14.848C231.743 15.2005 231.122 14.9608 230.925 14.8057C232.25 12.7752 233.35 10.3359 233.942 8.05171C234.224 6.96601 234.379 5.9649 234.393 5.1471C234.393 4.24469 234.252 3.58199 233.942 3.18718C232.673 1.56568 230.798 0.691471 228.542 0.663271C226.991 0.649171 225.68 1.04397 225.412 1.15677C224.876 1.02987 224.284 0.945273 223.649 0.931173C222.479 0.917072 221.478 1.18497 220.632 1.76308C220.265 1.62208 219.335 1.31187 218.178 1.11447C216.19 0.790172 214.625 1.04397 213.497 1.83358C212.158 2.77828 211.537 4.48439 211.65 6.88141C211.692 7.68511 212.143 10.1667 212.877 12.5496C213.836 15.6799 214.865 17.4565 215.965 17.8231C216.092 17.8654 216.247 17.8936 216.402 17.8936C216.797 17.8936 217.29 17.7103 217.798 17.104C218.418 16.3567 219.067 15.6376 219.715 14.9326C220.138 15.1582 220.618 15.2851 221.097 15.2992V15.3415C221.012 15.4402 220.942 15.5389 220.857 15.6376C220.519 16.0606 220.448 16.1452 219.377 16.3708C219.067 16.4272 218.263 16.5964 218.249 17.1745C218.249 17.7949 219.208 18.0628 219.32 18.091C219.701 18.1897 220.082 18.232 220.434 18.232C221.294 18.232 222.056 17.95 222.662 17.4001C222.648 19.6279 222.733 21.8134 223.001 22.4761C223.212 23.026 223.748 24.3514 225.44 24.3514C225.694 24.3514 225.962 24.3232 226.258 24.2527C228.02 23.872 228.782 23.0965 229.078 21.3904C229.233 20.4739 229.501 18.2884 229.642 17.1181C229.91 17.2027 230.262 17.245 230.629 17.245C231.404 17.245 232.307 17.0758 232.885 16.822C233.519 16.5259 234.661 15.8068 234.464 15.1723L234.478 15.1582ZM230.29 7.23391C230.29 7.58641 230.234 7.89661 230.192 8.22091C230.135 8.57341 230.079 8.94002 230.065 9.37712C230.065 9.81422 230.107 10.2513 230.163 10.6884C230.262 11.5626 230.375 12.465 229.952 13.3533C229.881 13.2264 229.825 13.0995 229.769 12.9726C229.712 12.8457 229.599 12.6483 229.444 12.3663C228.838 11.2806 227.414 8.72852 228.147 7.68511C228.359 7.37491 228.908 7.05061 230.304 7.23391H230.29ZM228.612 1.36828C230.643 1.41058 232.236 2.17198 233.378 3.62429C234.252 4.73819 233.294 9.80012 230.516 14.1711L230.431 14.0583L230.403 14.016C231.122 12.8316 230.981 11.6613 230.854 10.6179C230.798 10.1949 230.756 9.78602 230.77 9.40532C230.77 9.01052 230.84 8.65802 230.883 8.33371C230.939 7.92481 231.009 7.50181 230.995 6.99421C230.995 6.93781 231.009 6.88141 230.995 6.8109C230.953 6.3315 230.403 4.89329 229.289 3.59609C228.683 2.89108 227.795 2.08738 226.582 1.55158C227.104 1.43878 227.823 1.34007 228.612 1.35417V1.36828ZM217.276 16.6669C216.712 17.3437 216.331 17.2168 216.204 17.1745C215.372 16.8925 214.414 15.1441 213.568 12.3663C212.834 9.95522 212.411 7.54411 212.369 6.86731C212.256 4.72409 212.778 3.22949 213.92 2.42578C215.767 1.11447 218.799 1.90408 220.011 2.29888C219.997 2.31298 219.969 2.32708 219.955 2.35528C217.953 4.37159 218.009 7.82611 218.009 8.03761C218.009 8.12221 218.009 8.23501 218.023 8.39011C218.051 8.96822 218.122 10.0539 217.953 11.2665C217.798 12.4086 218.15 13.5084 218.912 14.3121C218.996 14.3967 219.067 14.4672 219.165 14.5518C218.827 14.9185 218.08 15.7363 217.29 16.681L217.276 16.6669ZM219.405 13.8186C218.785 13.17 218.503 12.2676 218.63 11.3511C218.813 10.0539 218.742 8.94002 218.714 8.33371C218.714 8.24911 218.714 8.17861 218.714 8.12221C219.01 7.86841 220.364 7.13521 221.323 7.36081C221.76 7.45951 222.028 7.75561 222.14 8.27731C222.719 10.9422 222.211 12.0561 221.816 12.9585C221.732 13.1418 221.661 13.311 221.591 13.4943L221.534 13.6353C221.407 13.9878 221.28 14.3121 221.21 14.6223C220.547 14.6223 219.913 14.3403 219.419 13.8327L219.405 13.8186ZM219.504 17.4142C219.306 17.3719 219.137 17.2873 219.038 17.2168C219.123 17.1745 219.278 17.1181 219.532 17.0617C220.801 16.8079 220.998 16.6105 221.421 16.0747C221.52 15.9478 221.633 15.8068 221.788 15.6376C222.014 15.3838 222.126 15.4261 222.31 15.4966C222.465 15.5671 222.62 15.7504 222.676 15.9619C222.704 16.0606 222.733 16.258 222.634 16.399C221.746 17.6539 220.434 17.6257 219.504 17.4001V17.4142ZM226.131 23.59C224.58 23.9284 224.03 23.1247 223.677 22.2223C223.438 21.6442 223.325 19.0075 223.409 16.1029C223.409 16.0606 223.409 16.0324 223.395 15.9901C223.395 15.9196 223.367 15.8491 223.353 15.7786C223.226 15.3556 222.93 15.0031 222.578 14.8621C222.437 14.8057 222.183 14.6928 221.873 14.7775C221.943 14.5095 222.056 14.1993 222.183 13.8609L222.239 13.7199C222.296 13.5648 222.366 13.3956 222.451 13.2264C222.874 12.2958 223.452 11.0127 222.817 8.10811C222.578 7.02241 221.802 6.5007 220.618 6.6135C219.913 6.684 219.25 6.98011 218.926 7.13521C218.855 7.17751 218.799 7.20571 218.728 7.23391C218.813 6.1482 219.165 4.10369 220.448 2.80648C221.252 1.98868 222.324 1.59388 223.635 1.60798C226.215 1.65028 227.865 2.97568 228.796 4.07549C229.599 5.0202 230.036 5.979 230.206 6.5007C228.894 6.3738 228.006 6.6276 227.555 7.27621C226.568 8.67212 228.091 11.3934 228.824 12.7047C228.951 12.9444 229.078 13.1559 229.106 13.2405C229.346 13.8186 229.656 14.1993 229.881 14.4813C229.952 14.5659 230.022 14.6505 230.065 14.721C229.67 14.8339 228.965 15.1018 229.021 16.4131C228.965 17.0758 228.598 20.1637 228.415 21.2635C228.161 22.7017 227.639 23.2516 226.145 23.5618L226.131 23.59ZM232.603 16.1875C232.194 16.3708 231.517 16.5118 230.883 16.54C230.177 16.5682 229.811 16.4554 229.726 16.3849C229.684 15.5671 229.994 15.4825 230.318 15.3838C230.375 15.3697 230.417 15.3556 230.474 15.3415C230.502 15.3697 230.53 15.3838 230.572 15.412C231.15 15.7927 232.166 15.835 233.604 15.5389H233.618C233.421 15.7222 233.096 15.9619 232.617 16.1734L232.603 16.1875Z" fill="white"/>
<g clip-path="url(#clip1_20_57)">
<path d="M248.112 5.28456L244.249 9.15177L250.205 15.1262L244.219 21.1309L248.069 25L254.068 18.9935L260.034 24.957L263.897 21.0897L248.112 5.28456Z" fill="#53B9FF"/>
<path d="M257.941 15.1263L254.068 18.9935L260.035 24.9571L263.897 21.0898L257.941 15.1263Z" fill="#119EFF"/>
<path d="M257.941 15.1263L254.068 18.9935L255.559 20.4761L257.941 15.1263Z" fill="black" fill-opacity="0.2"/>
<path d="M263.219 9.86162L269.218 3.8552L265.354 0L259.357 5.99441L253.39 0.0302728L249.528 3.89768L265.313 19.7028L269.176 15.8355L263.219 9.86162Z" fill="#53B9FF"/>
<path d="M255.484 9.86182L259.357 5.99451L253.39 0.0305634L249.528 3.89777L255.484 9.86182Z" fill="#119EFF"/>
<path d="M255.484 9.86163L259.357 5.99442L257.866 4.51144L255.484 9.86163Z" fill="black" fill-opacity="0.2"/>
</g>
<defs>
<linearGradient id="paint0_linear_20_57" x1="63.5918" y1="-14.5094" x2="90.7457" y2="30.7339" gradientUnits="userSpaceOnUse">
<stop stop-color="#2683AF"/>
<stop offset="1" stop-color="#77C9B3"/>
</linearGradient>
<clipPath id="clip0_20_57">
<rect width="23.53" height="25" fill="white" transform="translate(30.1343)"/>
</clipPath>
<clipPath id="clip1_20_57">
<rect width="25" height="25" fill="white" transform="translate(244.219)"/>
</clipPath>
</defs>
</svg>
