<?xml version="1.0" encoding="UTF-8"?><svg id="a" xmlns="http://www.w3.org/2000/svg" viewBox="0 0 28.8 24.47"><defs><style>.b{letter-spacing:.03em;}.c{fill:#fff;}.d{fill:#f36c3d;}.e{fill:#f36d3e;font-family:Roboto-Medium, Roboto;font-size:6.87px;}.f{letter-spacing:.02em;}</style></defs><g><path class="d" d="M20.72,3.11C18.03-.39,13.01-1.03,9.52,1.67c-3.49,2.7-4.14,7.71-1.44,11.2,2.7,3.49,7.71,4.14,11.2,1.44h0c3.49-2.7,4.13-7.71,1.44-11.2h0Z"/><path class="c" d="M17.09,5.09l-3.37,3.39-.95-.98c3.31-3.31,3.65-3.02,4.32-2.42h0Z"/><path class="d" d="M13.73,8.58s-.06-.01-.08-.03l-.96-.96s-.04-.12,0-.17c3.27-3.27,3.71-3.12,4.49-2.42,.03,.02,.04,.05,.04,.09,0,.03,0,.07-.03,.09l-3.37,3.37s-.05,.03-.09,.03h0Zm-.79-1.07l.79,.79,3.19-3.19c-.23-.29-.64-.36-.95-.16-.58,.26-1.51,1.05-3.04,2.57Z"/><path class="c" d="M14.69,9.42l-.92-.94,3.37-3.33c.91,.89-.44,2.36-2.45,4.27h0Z"/><path class="d" d="M14.69,9.54s-.06-.01-.08-.03l-.94-.92s-.01-.07,0-.11c0-.03,0-.06,0-.09l3.37-3.37s.12-.05,.17,0c.22,.2,.34,.49,.33,.79,0,.9-1.03,2.03-2.77,3.68-.02,.02-.05,.04-.09,.04h0Zm-.75-1.06l.75,.75c1.33-1.26,2.6-2.56,2.61-3.43,0-.19-.05-.37-.17-.51l-3.19,3.2Z"/><path class="c" d="M12.8,7.53l.67,.67s.02,.04,0,.06h0l-1.4,.3c-.06,.01-.12-.02-.15-.07s-.02-.12,.03-.16l.82-.81s.03,0,.04,.01Z"/><path class="d" d="M12.03,8.68c-.09,0-.17-.05-.22-.13-.05-.1-.03-.22,.05-.3l.81-.82c.06-.05,.15-.05,.21,0l.67,.67s.05,.09,.04,.15-.06,.09-.11,.11l-1.4,.3-.04,.03Zm.75-1.01l-.75,.75,1.24-.27-.49-.49Z"/><path class="c" d="M18.88,3.22c-.48-.46-1.24-.48-1.74-.05s-.59,1.19-.2,1.73,1.13,.69,1.71,.35l-.91-.91,1.14-1.13Z"/><path class="d" d="M17.99,5.56c-.57,0-1.07-.35-1.29-.88-.21-.52-.1-1.12,.3-1.53,.55-.54,1.44-.54,2,0,.03,.02,.04,.05,.04,.09,0,.03-.01,.06-.04,.09l-1.08,1.02,.82,.81s.04,.06,.03,.1c0,.04-.02,.07-.05,.09-.22,.14-.47,.21-.73,.22h0Zm0-2.58c-.47,0-.9,.29-1.08,.72s-.08,.94,.25,1.27c.34,.34,.85,.44,1.29,.25l-.79-.79s-.04-.05-.04-.09c0-.03,.02-.06,.04-.08l1.04-1.05c-.21-.16-.46-.24-.72-.25h0Z"/><path class="c" d="M18.9,3.24l-1.14,1.13,.91,.91c.09-.05,.18-.11,.25-.19,.49-.52,.48-1.34-.02-1.85Z"/><path class="d" d="M18.65,5.38s-.06-.01-.08-.03l-.91-.91s-.04-.05-.04-.09c0-.03,.02-.06,.04-.08l1.13-1.11c.04-.06,.11-.07,.17-.03,.01,0,.02,.02,.03,.03,.55,.54,.56,1.43,.02,1.98l-.02,.02c-.08,.08-.17,.15-.27,.21-.02,.01-.05,.01-.08,0h0Zm-.73-1.02l.75,.75c.05-.04,.1-.08,.15-.12,.22-.22,.35-.52,.35-.83,0-.28-.1-.55-.29-.76l-.96,.96Z"/><path class="c" d="M17.23,5.23c-.19-.18-.48-.18-.67,0l-3.01,3.01,.5,.51,3.19-2.8c.1-.09,.15-.22,.15-.36s-.06-.27-.16-.36h0Z"/><path class="d" d="M14.03,8.86s-.06-.01-.08-.03l-.51-.51s-.04-.12,0-.17l3.02-3c.24-.24,.63-.24,.87,0,.12,.12,.18,.28,.18,.45,0,.17-.08,.33-.21,.44l-3.19,2.8s-.05,.02-.08,.02h0Zm-.35-.63l.33,.34,3.13-2.72c.08-.07,.12-.16,.13-.27s-.04-.2-.11-.27c-.15-.14-.38-.14-.53,0l-2.95,2.92Z"/><path class="c" d="M11.22,11.67s-.02,.06,0,.08l.13,.58c.01,.07-.02,.14-.08,.17-.06,.04-.14,.03-.19-.02l-.91-.88,2.84-2.86h.99l.67,.67c-1.04,.91-2.2,1.67-3.44,2.26Z"/><path class="d" d="M11.16,12.64c-.08,0-.15-.03-.2-.09l-.87-.87s-.04-.05-.04-.09c0-.03,.02-.06,.04-.08l2.86-2.87s.04-.03,.06-.03h.99s.05,0,.08,0l.67,.67s.04,.06,.03,.09c0,.03-.01,.07-.04,.09l-.05,.05c-1.04,.87-2.19,1.6-3.41,2.19l.13,.54c.04,.15-.06,.31-.21,.35-.02,0-.04,0-.06,0l.03,.05Zm-.81-1.05l.79,.79s.04,.01,.05,0c.01-.01,.01-.03,0-.05l-.13-.58c-.02-.09,.02-.17,.1-.21,1.19-.58,2.31-1.3,3.33-2.14l-.55-.55h-.89l-2.7,2.74Z"/><path class="c" d="M9.48,12.28l.67-.67,1.03,1.03-1.63-.11c-.06,0-.11-.04-.12-.1s.01-.11,.06-.14h0Z"/><path class="d" d="M11.19,12.74l-1.62-.11c-.1,0-.18-.07-.21-.16s-.01-.19,.05-.26l.67-.67s.12-.04,.17,0l1.02,1.02s.03,.09,0,.13c-.02,.02-.04,.04-.07,.05h0Zm-1.62-.37l1.33,.09-.73-.69-.6,.6Z"/><path class="c" d="M14.09,8.82l-1.34,.21,.78-.77,.57,.57Z"/><path class="d" d="M12.74,9.15s-.09-.02-.11-.07c-.03-.04-.03-.09,0-.13l.77-.78s.12-.05,.17,0l.57,.57s.02,.08,0,.12c-.01,.04-.05,.08-.09,.09l-1.33,.21h.02Zm.78-.73l-.43,.43,.75-.11-.31-.32Z"/><path class="c" d="M14.09,8.82l-.94,.12c-.06,.01-.13-.03-.14-.09,0-.04,0-.08,.03-.11l.49-.49,.57,.57Z"/><path class="d" d="M13.12,9.06c-.09,0-.17-.05-.21-.13-.05-.09-.04-.21,.04-.29l.49-.49s.12-.05,.17,0l.57,.57s.05,.12,0,.17c-.02,.02-.05,.03-.08,.04l-.93,.12h-.05Zm0-.24l.71-.09-.31-.31-.4,.4h0Zm5.79-4.81s-.08-.06-.13-.04c-.02,.01-.04,.03-.05,.05,0,.02,0,.05,0,.07,.05,.1,.03,.21-.03,.3-.02,.02-.02,.04-.02,.06,0,.02,0,.05,.02,.06,.02,0,.04,0,.05,0,.03,0,.06,0,.09-.03,.11-.14,.14-.33,.06-.49h0Z"/></g><text class="e" transform="translate(0 22.61)"><tspan class="f" x="0" y="0">P</tspan><tspan class="b" x="4.52" y="0">ostman</tspan></text></svg>