<?xml version="1.0" encoding="UTF-8"?><svg id="a" xmlns="http://www.w3.org/2000/svg" viewBox="0 0 16.06 22.68"><defs><style>.b{fill:#ebebeb;}.c{fill:#fff;}.d{fill:#1673b6;}.e{fill:#34a9db;}</style></defs><path class="c" d="M12.59,.84h-1.33l1.39,1.5v.72h-2.86v-.84h1.39l-1.39-1.5V0h2.8V.84Zm-3.37,0h-1.33l1.39,1.5v.72h-2.86v-.84h1.39l-1.39-1.5V0h2.8V.84Zm-3.34,.03h-1.44v1.31h1.44v.87H3.42V0h2.46V.87Z"/><path class="d" d="M1.46,20.86L0,4.46H16.06l-1.46,16.4-6.58,1.82-6.56-1.82Z"/><path class="e" d="M8.03,21.28l5.32-1.47,1.25-14.01h-6.57v15.48Z"/><path class="c" d="M8.03,11.74h2.66l.18-2.06h-2.85v-2.01h5.04l-.05,.54-.49,5.54h-4.5v-2.01Z"/><path class="b" d="M8.04,16.96h0l-2.24-.6-.14-1.6H3.63l.28,3.16,4.12,1.14h0v-2.09h0Z"/><path class="c" d="M10.52,13.67l-.24,2.69-2.24,.61v2.09l4.12-1.14,.03-.34,.35-3.91h-2.02Z"/><path class="b" d="M8.04,7.67v2.01H3.18l-.04-.45-.09-1.02-.05-.54h5.04Zm0,4.07v2.01h-2.21l-.04-.45-.09-1.02-.05-.54h2.39Z"/></svg>