<?xml version="1.0" encoding="UTF-8"?><svg id="a" xmlns="http://www.w3.org/2000/svg" viewBox="0 0 18.59 22.68"><defs><style>.b{fill:#70cff0;}</style></defs><circle class="b" cx="9.3" cy="8.29" r="1.7"/><path class="b" d="M9.3,14.54c1.33,1.3,2.65,2.06,3.71,2.06,.35,0,.68-.07,.95-.24,.95-.55,1.3-1.92,.97-3.87-.05-.35-.13-.69-.22-1.06,.37-.11,.69-.22,1.02-.33,1.84-.71,2.87-1.7,2.87-2.78s-1.02-2.08-2.87-2.78c-.33-.13-.66-.24-1.02-.33,.09-.37,.16-.71,.22-1.06,.31-1.99-.04-3.38-.99-3.93-.27-.16-.6-.24-.95-.24-1.04,0-2.37,.77-3.71,2.06C7.96,.77,6.65,0,5.59,0,5.24,0,4.91,.07,4.64,.24c-.95,.55-1.3,1.92-.97,3.87,.05,.35,.13,.69,.22,1.06-.37,.11-.69,.22-1.02,.33-1.84,.71-2.87,1.7-2.87,2.78s1.02,2.08,2.87,2.78c.33,.13,.66,.24,1.02,.33-.09,.37-.16,.71-.22,1.06-.31,1.95,.04,3.34,.97,3.87,.27,.16,.6,.24,.95,.24,1.06,.04,2.37-.73,3.71-2.01h0Zm-1.02-2.47c.33,.02,.68,.02,1.02,.02s.69,0,1.02-.02c-.33,.44-.68,.84-1.02,1.22-.35-.38-.69-.79-1.02-1.22Zm-2.26-1.88c.18,.31,.35,.6,.55,.89-.57-.07-1.1-.16-1.61-.27,.16-.49,.35-1,.57-1.52,.15,.29,.31,.6,.49,.89Zm-1.06-4.4c.51-.11,1.04-.2,1.61-.27-.18,.29-.37,.58-.55,.89s-.35,.6-.49,.91c-.24-.53-.42-1.04-.57-1.53Zm1,2.5c.24-.49,.49-.99,.79-1.48,.27-.47,.58-.95,.89-1.42,.55-.04,1.1-.05,1.66-.05s1.13,.02,1.66,.05c.33,.47,.62,.95,.89,1.42,.29,.49,.55,.99,.79,1.48-.24,.49-.49,.99-.79,1.48-.27,.47-.58,.95-.89,1.42-.55,.04-1.1,.05-1.66,.05s-1.13-.02-1.66-.05c-.33-.47-.62-.95-.89-1.42-.29-.49-.55-.99-.79-1.48Zm7.14-.99l-.49-.91c-.18-.31-.35-.6-.55-.89,.57,.07,1.1,.16,1.61,.27-.16,.51-.35,1.02-.57,1.53Zm0,1.97c.22,.51,.4,1.02,.57,1.52-.51,.11-1.04,.2-1.61,.27,.18-.29,.37-.58,.55-.89,.16-.27,.33-.58,.49-.89Zm.42,6.34c-.15,.09-.33,.13-.53,.13-.89,0-2.01-.73-3.1-1.83,.53-.57,1.04-1.21,1.55-1.92,.86-.07,1.68-.2,2.45-.38,.09,.33,.15,.66,.2,.99,.26,1.55,.05,2.67-.57,3.01Zm.95-9.62c2.05,.58,3.27,1.48,3.27,2.3,0,.71-.84,1.42-2.32,1.99-.29,.11-.62,.22-.95,.31-.24-.75-.53-1.52-.89-2.3,.37-.79,.68-1.55,.89-2.3ZM13,.84c.2,0,.37,.04,.53,.13,.6,.35,.82,1.44,.57,3.01-.05,.31-.13,.64-.2,.99-.77-.16-1.59-.29-2.45-.38-.49-.71-1.02-1.35-1.55-1.92,1.1-1.08,2.21-1.83,3.1-1.83Zm-2.68,3.67c-.33-.02-.68-.02-1.02-.02s-.69,0-1.02,.02c.33-.44,.68-.84,1.02-1.22,.35,.38,.69,.8,1.02,1.22ZM5.08,.97c.15-.09,.33-.13,.53-.13,.89,0,2.01,.73,3.1,1.83-.53,.57-1.04,1.21-1.55,1.92-.86,.07-1.68,.2-2.45,.38-.09-.33-.15-.66-.2-.99-.26-1.55-.05-2.65,.57-3.01Zm-.95,9.62c-2.05-.58-3.27-1.48-3.27-2.3,0-.71,.84-1.42,2.32-1.99,.29-.11,.62-.22,.95-.31,.24,.75,.53,1.52,.89,2.3-.37,.79-.68,1.57-.89,2.3Zm.38,2.01c.05-.31,.13-.64,.2-.99,.77,.16,1.59,.29,2.45,.38,.49,.71,1.02,1.35,1.55,1.92-1.1,1.08-2.21,1.83-3.1,1.83-.2,0-.37-.04-.53-.13-.62-.35-.82-1.46-.57-3.01Zm-.77,7.52c.4-.49,.42-1.04,.2-1.59s-.68-.8-1.24-.82c-.68-.02-1.37,0-2.05,0h-.13v4.73h.55v-1.79h.86c.11,0,.2,.04,.26,.13l1.1,1.7s.07,.09,.11,.09h.71c-.44-.68-.86-1.31-1.3-1.97,.38-.05,.71-.18,.93-.47Zm-2.67-.04v-1.81h.2c.42,0,.86-.02,1.28,.02,.49,.02,.84,.4,.84,.89s-.4,.88-.89,.89c-.44,.02-.88,0-1.42,0Zm7.07,.24c-.29-1.28-1.46-1.61-2.36-1.21-.69,.31-1,.91-1.02,1.66-.02,.57,.15,1.08,.58,1.46,.49,.44,1.1,.49,1.72,.38,.35-.07,.66-.24,.89-.49-.09-.13-.18-.26-.27-.37-.51,.44-1.08,.58-1.7,.29-.4-.2-.6-.69-.64-1.06h2.83v-.24c.02-.16,0-.31-.04-.44Zm-2.76,.29c-.05-.55,.49-1.13,1.1-1.13,.69-.02,1.13,.4,1.15,1.13h-2.25Zm5.61-1.59c-.27-.05-.57-.07-.84-.05-.44,.04-.82,.24-1.13,.57,.09,.13,.16,.26,.27,.4,.04-.04,.07-.07,.11-.09,.29-.27,.64-.42,1.06-.38,.33,.02,.64,.13,.73,.46,.07,.26,.05,.53,.07,.8-.05,0-.07-.02-.09-.04-.44-.37-.93-.44-1.46-.31-.49,.13-.8,.51-.84,1-.04,.57,.22,.99,.71,1.19,.31,.13,.66,.13,.99,.05,.26-.05,.37-.2,.73-.4v.24h.51c0-.73,.02-1.63,0-2.47,0-.53-.31-.86-.82-.97Zm.26,2.3c-.02,.05,0,.11,0,.16,0,.38-.09,.51-.46,.66-.26,.09-.53,.13-.8,.04-.31-.09-.53-.37-.53-.68-.02-.31,.18-.62,.49-.71,.42-.15,.8-.05,1.15,.2,.11,.09,.18,.18,.15,.33Zm2.85-1.81c.47-.15,.91-.05,1.24,.35l.05,.04c.13-.11,.24-.22,.38-.35-.05-.05-.07-.09-.11-.15-.53-.57-1.57-.64-2.21-.18-.89,.66-.88,1.94-.44,2.61,.42,.64,1.02,.86,1.73,.77,.42-.05,.77-.26,1.04-.6-.13-.11-.26-.22-.38-.35-.04,.04-.05,.05-.07,.09-.49,.55-1.31,.49-1.75-.09-.26-.35-.31-.75-.24-1.15,.04-.46,.27-.82,.75-.99h0Zm3.8,2.48s-.05,.04-.05,.04c-.15,.11-.29,.13-.46,.07-.16-.07-.18-.22-.2-.37v-2.08s0,.04,.02-.15h.69v-.55h-.73v-.91h-.55v.99h-.47s-.09,.04-.09,.07c-.02,.13,0,.22,0,.4h.58v2.34c0,.29,.07,.55,.33,.69,.27,.16,.8,.13,1.04-.07,.04-.02,.05-.09,.05-.11-.05-.11-.11-.24-.16-.37Z"/></svg>