<?xml version="1.0" encoding="UTF-8"?><svg id="a" xmlns="http://www.w3.org/2000/svg" viewBox="0 0 14.41 24.02"><defs><style>.b{font-family:Roboto-Medium, Roboto;font-size:6.93px;letter-spacing:.02em;}.b,.c{fill:#9a4350;}</style></defs><path class="c" d="M13.97,7.8c0-.95-.66-1.76-1.54-1.99L14.41,0H4.63l1.98,5.84c-.85,.25-1.48,1.04-1.48,1.97,0,.69,.35,1.3,.87,1.67-.21,.29-.44,.56-.72,.82-.51,.48-1.07,.84-1.68,1.09-.55-.37-.79-1.03-.57-1.61,.84-.26,1.45-1.04,1.45-1.96,0-1.13-.92-2.05-2.05-2.05S.37,6.68,.37,7.82c0,.54,.21,1.06,.6,1.44l-.1,.2c-.31,.63-.66,1.35-.79,2.15-.27,1.61,.17,2.9,1.22,3.62,.59,.41,1.24,.61,1.95,.61,1.21,0,2.43-.61,3.62-1.19,.84-.42,1.72-.85,2.57-1.06,.32-.08,.65-.12,1-.17,.71-.1,1.44-.21,2.09-.59,.77-.44,1.29-1.19,1.44-2.04,.11-.66,0-1.32-.29-1.89,.2-.32,.31-.69,.31-1.09h0Zm-.89,0c0,.64-.52,1.16-1.16,1.16s-1.16-.52-1.16-1.16c0-.21,.05-.4,.15-.57,.04-.06,.08-.13,.13-.18,.05-.06,.1-.11,.16-.15h0s.08-.06,.12-.09c0,0,0,0,0,0,.02,0,.04-.02,.05-.03,0,0,0,0,.01,0,.02,0,.04-.02,.06-.03s.05-.02,.06-.03c0,0,0,0,.01,0,.02,0,.04-.01,.05-.02,0,0,.01,0,.02,0h.07l.07-.03s.01,0,.02,0c.02,0,.04,0,.05,0h.02s.05,0,.07,0h.06s.03,0,.05,0h0s.07,0,.11,.02c.54,.11,.92,.59,.92,1.14h0ZM5.91,.92h7.22l-1.66,4.89c-.07,.01-.14,.04-.21,.06l-1.74-3.56-1.75,3.53c-.07-.02-.14-.04-.22-.05L5.91,.92Zm3.28,6.49c-.09-.43-.31-.82-.62-1.1l.95-1.92,.96,1.96c-.29,.29-.49,.66-.57,1.06h-.72Zm-2.3-.73h.08s.04-.02,.05-.02h.02s.03,0,.05,0h.18s.03,0,.05,0c0,0,.01,0,.02,0,.02,0,.03,0,.05,0,0,0,0,0,.02,0h.06s.04,.02,.06,.03c0,0,0,0,.02,0,.01,0,.03,0,.05,.02,0,0,0,0,.01,0,.02,0,.04,.01,.05,.02h0s.04,.02,.06,.03c.02,0,.04,.02,.06,.03,0,0,0,0,0,0,.02,0,.03,.02,.05,.03h0c.05,.05,.11,.09,.16,.14h0c.05,.06,.09,.11,.13,.17,.12,.19,.19,.41,.19,.63,0,.64-.52,1.16-1.16,1.16s-1.16-.52-1.16-1.16c0-.54,.37-.99,.87-1.12h0Zm-4.51-.04c.64,0,1.16,.52,1.16,1.16s-.52,1.16-1.16,1.16-1.16-.52-1.16-1.16,.52-1.16,1.16-1.16Zm10.67,3.98c-.1,.59-.46,1.1-1,1.41-.5,.29-1.12,.38-1.76,.47-.35,.05-.73,.11-1.08,.19-.95,.23-1.87,.69-2.76,1.13-1.14,.56-2.21,1.1-3.21,1.1-.52,0-.98-.15-1.42-.45-1.01-.7-.96-2-.84-2.72,.11-.67,.42-1.3,.71-1.9,.02-.04,.03-.07,.05-.11,.1,.04,.21,.06,.32,.08-.17,.97,.32,1.98,1.28,2.47l.17,.09,.19-.07c.8-.28,1.55-.75,2.2-1.37,.36-.34,.68-.72,.95-1.13,.11,.02,.21,.02,.32,.02,.95,0,1.76-.66,1.99-1.54h.77c.23,.89,1.03,1.54,1.99,1.54,.36,0,.72-.1,1.04-.28,.12,.35,.16,.7,.09,1.06h0Z"/><text class="b" transform="translate(.14 22.14)"><tspan x="0" y="0">Jest</tspan></text></svg>