<?xml version="1.0" encoding="UTF-8"?><svg id="a" xmlns="http://www.w3.org/2000/svg" xmlns:xlink="http://www.w3.org/1999/xlink" viewBox="0 0 2500 1808.73"><defs><style>.c{fill:url(#b);}.d{fill:#f7f5ed;}.e{fill:#e7e4d7;}.f{fill:#e75a4d;}.g{fill:#b7b6ad;}.h{fill:#b8b7ae;}.i{fill:#b2392f;}</style><linearGradient id="b" x1="-3113.16" y1="-6010.21" x2="20993.34" y2="-6010.21" gradientTransform="translate(753.31 719.09) scale(.06)" gradientUnits="userSpaceOnUse"><stop offset="0" stop-color="#f8f6ef"/><stop offset="1" stop-color="#e7e4d6"/></linearGradient></defs><path class="f" d="M2294.86,0c112.64,0,204.81,92.16,204.81,204.8v59.37l-284.54,203.25-968.71,667.29L277.72,460.66V1808.73h-72.91c-112.64,0-204.81-92.16-204.81-204.8V204.86C0,92.22,92.17,.05,204.81,.05L1246.42,772.33,2294.81,.05l.06-.05h0Z"/><path class="c" d="M204.81,0L1246.42,772.28,2294.86,0H204.81Z"/><path class="e" d="M277.72,460.66V1808.73h1937.47V467.43l-968.76,667.29L277.72,460.66Z"/><path class="h" d="M277.72,1808.73l968.71-674.01-4.38-3.1L277.72,1793.92v14.81Z"/><path class="g" d="M2215.18,467.43l.55,1341.3-969.32-674.01,968.76-667.29Z"/><path class="i" d="M2499.67,264.18l.33,1339.92c-4.88,148.93-69.41,202.09-284.26,204.58l-.55-1341.31,284.54-203.25-.05,.05h0Z"/><path class="c" d="M204.81,0L1246.42,772.28,2294.86,0H204.81Z"/><path class="c" d="M204.81,0L1246.42,772.28,2294.86,0H204.81Z"/><path class="c" d="M204.81,0L1246.42,772.28,2294.86,0H204.81Z"/><path class="c" d="M204.81,0L1246.42,772.28,2294.86,0H204.81Z"/><path class="c" d="M204.81,0L1246.42,772.28,2294.86,0H204.81Z"/><path class="c" d="M204.81,0L1246.42,772.28,2294.86,0H204.81Z"/><path class="c" d="M204.81,0L1246.42,772.28,2294.86,0H204.81Z"/><path class="d" d="M204.81,0L1246.42,772.28,2294.86,0H204.81Z"/></svg>