<?xml version="1.0" encoding="UTF-8"?><svg id="a" xmlns="http://www.w3.org/2000/svg" viewBox="0 0 41.74 23.82"><defs><style>.b{letter-spacing:.02em;}.c{fill:#010101;}.d{fill:#fff;}.e{fill:#356892;}.f{fill:#326994;font-family:Roboto-Medium, Roboto;font-size:6.81px;}.g{letter-spacing:.02em;}</style></defs><text class="f" transform="translate(0 21.97)"><tspan class="g" x="0" y="0">P</tspan><tspan class="b" x="4.48" y="0">ostgresSQL</tspan></text><g><path class="c" d="M29.43,10.63c-.1-.31-.37-.53-.72-.58-.17-.02-.35-.01-.58,.03-.39,.08-.68,.11-.89,.12,.8-1.35,1.45-2.88,1.82-4.33,.6-2.34,.28-3.4-.1-3.88C27.96,.71,26.5,.02,24.75,0c-.94-.01-1.76,.17-2.19,.31-.4-.07-.83-.11-1.28-.12-.84-.01-1.59,.17-2.23,.55-.35-.12-.92-.29-1.57-.4-1.54-.25-2.78-.06-3.69,.59-1.1,.78-1.61,2.12-1.51,4.01,.03,.6,.36,2.42,.89,4.14,.3,.99,.63,1.81,.96,2.45,.47,.9,.98,1.43,1.55,1.61,.32,.11,.9,.18,1.51-.33,.08,.09,.18,.19,.32,.27,.17,.11,.39,.2,.6,.25,.76,.19,1.48,.14,2.09-.12,0,.11,0,.21,0,.3,0,.15,0,.29,.01,.42,.04,.9,.1,1.6,.28,2.09,0,.03,.02,.07,.04,.11,.09,.28,.24,.74,.63,1.11,.4,.38,.88,.49,1.32,.49,.22,0,.43-.03,.62-.07,.66-.14,1.41-.36,1.96-1.13,.51-.73,.76-1.83,.81-3.57l.02-.14v-.09h.16c.67,.04,1.5-.1,2-.33,.4-.19,1.68-.86,1.38-1.78"/><path class="e" d="M28.28,10.8c-2,.41-2.14-.27-2.14-.27,2.12-3.14,3-7.12,2.24-8.1-2.08-2.66-5.69-1.4-5.75-1.37h-.02c-.4-.08-.84-.13-1.34-.14-.91-.01-1.59,.24-2.12,.63,0,0-6.43-2.65-6.13,3.33,.06,1.27,1.82,9.63,3.92,7.1,.77-.92,1.51-1.7,1.51-1.7,.37,.24,.81,.37,1.27,.32l.04-.03c-.01,.11,0,.23,.01,.36-.54,.6-.38,.71-1.46,.93-1.09,.23-.45,.63-.03,.73,.51,.13,1.69,.31,2.48-.81l-.03,.13c.21,.17,.36,1.1,.34,1.95-.02,.85-.04,1.43,.13,1.88,.17,.45,.33,1.48,1.75,1.17,1.19-.25,1.8-.91,1.89-2.01,.06-.78,.2-.67,.21-1.37l.11-.33c.13-1.06,.02-1.4,.75-1.24l.18,.02c.54,.02,1.24-.09,1.66-.28,.89-.41,1.42-1.1,.54-.92h0"/><path class="d" d="M19.53,5.47c-.18-.03-.34,0-.43,.06-.05,.04-.06,.08-.06,.1-.01,.07,.04,.16,.07,.2,.09,.12,.22,.2,.35,.22,.02,0,.04,0,.06,0,.22,0,.42-.17,.43-.3,.02-.16-.21-.26-.43-.29m5.98,0c-.02-.12-.24-.16-.45-.13-.21,.03-.41,.12-.39,.25,.01,.1,.19,.26,.39,.26,.02,0,.03,0,.05,0,.14-.02,.24-.11,.29-.16,.07-.08,.11-.16,.11-.22"/><path class="d" d="M28.94,10.76c-.08-.23-.32-.31-.73-.22-1.21,.25-1.65,.08-1.79-.03,.94-1.44,1.72-3.17,2.14-4.79,.2-.77,.31-1.48,.32-2.06,0-.64-.1-1.11-.32-1.39-.9-1.15-2.23-1.77-3.83-1.79-1.1-.01-2.03,.27-2.22,.35-.38-.09-.8-.15-1.25-.16-.83-.01-1.54,.18-2.14,.59-.26-.1-.92-.32-1.74-.46-1.41-.23-2.52-.05-3.32,.51-.95,.67-1.39,1.88-1.31,3.58,.03,.57,.35,2.33,.87,4.02,.68,2.22,1.41,3.48,2.19,3.74,.09,.03,.2,.05,.31,.05,.28,0,.63-.13,.99-.56,.44-.53,.9-1.04,1.36-1.54,.3,.16,.64,.25,.98,.26v.03c-.06,.07-.11,.14-.17,.21-.24,.3-.29,.36-1.05,.52-.22,.04-.79,.16-.8,.57,0,.44,.68,.63,.76,.65,.27,.07,.54,.1,.79,.1,.61,0,1.15-.2,1.58-.59-.01,1.58,.05,3.13,.24,3.6,.15,.39,.53,1.33,1.73,1.33,.18,0,.37-.02,.58-.07,1.25-.27,1.79-.82,2-2.03,.11-.65,.3-2.2,.4-3.03,.19,.06,.44,.09,.7,.09,.55,0,1.19-.12,1.6-.3,.45-.21,1.26-.72,1.12-1.17h0Zm-2.97-5.62c0,.25-.04,.47-.07,.7-.04,.25-.08,.51-.09,.82,0,.31,.03,.62,.07,.93,.07,.62,.15,1.26-.15,1.89-.05-.09-.09-.18-.13-.27-.04-.09-.12-.23-.23-.43-.43-.77-1.44-2.58-.92-3.32,.15-.22,.54-.45,1.53-.32h0Zm-1.19-4.16c1.44,.03,2.57,.57,3.38,1.6,.62,.79-.06,4.38-2.03,7.48l-.06-.08-.02-.03c.51-.84,.41-1.67,.32-2.41-.04-.3-.07-.59-.06-.86,0-.28,.05-.53,.08-.76,.04-.29,.09-.59,.08-.95,0-.04,.01-.08,0-.13-.03-.34-.42-1.36-1.21-2.28-.43-.5-1.06-1.07-1.92-1.45,.37-.08,.88-.15,1.44-.14h0Zm-8.04,10.85c-.4,.48-.67,.39-.76,.36-.59-.2-1.27-1.44-1.87-3.41-.52-1.71-.82-3.42-.85-3.9-.08-1.52,.29-2.58,1.1-3.15,1.31-.93,3.46-.37,4.32-.09-.01,.01-.03,.02-.04,.04-1.42,1.43-1.38,3.88-1.38,4.03,0,.06,0,.14,.01,.25,.02,.41,.07,1.18-.05,2.04-.11,.81,.14,1.59,.68,2.16,.06,.06,.11,.11,.18,.17-.24,.26-.77,.84-1.33,1.51h0Zm1.51-2.02c-.44-.46-.64-1.1-.55-1.75,.13-.92,.08-1.71,.06-2.14,0-.06,0-.11,0-.15,.21-.18,1.17-.7,1.85-.54,.31,.07,.5,.28,.58,.65,.41,1.89,.05,2.68-.23,3.32-.06,.13-.11,.25-.16,.38l-.04,.1c-.09,.25-.18,.48-.23,.7-.47,0-.92-.2-1.27-.56h0Zm.07,2.55c-.14-.03-.26-.09-.33-.14,.06-.03,.17-.07,.35-.11,.9-.18,1.04-.32,1.34-.7,.07-.09,.15-.19,.26-.31h0c.16-.18,.24-.15,.37-.1,.11,.05,.22,.18,.26,.33,.02,.07,.04,.21-.03,.31-.63,.89-1.56,.87-2.22,.71Zm4.7,4.38c-1.1,.24-1.49-.33-1.74-.97-.17-.41-.25-2.28-.19-4.34,0-.03,0-.05-.01-.08,0-.05-.02-.1-.03-.15-.09-.3-.3-.55-.55-.65-.1-.04-.28-.12-.5-.06,.05-.19,.13-.41,.22-.65l.04-.1c.04-.11,.09-.23,.15-.35,.3-.66,.71-1.57,.26-3.63-.17-.77-.72-1.14-1.56-1.06-.5,.05-.97,.26-1.2,.37-.05,.03-.09,.05-.14,.07,.06-.77,.31-2.22,1.22-3.14,.57-.58,1.33-.86,2.26-.85,1.83,.03,3,.97,3.66,1.75,.57,.67,.88,1.35,1,1.72-.93-.09-1.56,.09-1.88,.55-.7,.99,.38,2.92,.9,3.85,.09,.17,.18,.32,.2,.38,.17,.41,.39,.68,.55,.88,.05,.06,.1,.12,.13,.17-.28,.08-.78,.27-.74,1.2-.04,.47-.3,2.66-.43,3.44-.18,1.02-.55,1.41-1.61,1.63h0Zm4.59-5.25c-.29,.13-.77,.23-1.22,.25-.5,.02-.76-.06-.82-.11-.03-.58,.19-.64,.42-.71,.04-.01,.07-.02,.11-.03,.02,.02,.04,.03,.07,.05,.41,.27,1.13,.3,2.15,.09h.01c-.14,.13-.37,.3-.71,.45h0Z"/></g></svg>