<?xml version="1.0" encoding="UTF-8"?><svg id="a" xmlns="http://www.w3.org/2000/svg" viewBox="0 0 22.68 22.68"><defs><style>.b{fill:#f1dc4f;}.c{fill:#333431;}</style></defs><path class="b" d="M1.46,0H21.22c.81,0,1.46,.65,1.46,1.46V21.22c0,.81-.65,1.46-1.46,1.46H1.46c-.81,0-1.46-.65-1.46-1.46V1.46C0,.65,.65,0,1.46,0Z"/><path class="c" d="M20.82,17.27c-.17-1.03-.84-1.9-2.84-2.71-.69-.32-1.47-.55-1.7-1.07-.08-.31-.09-.48-.04-.66,.15-.6,.87-.79,1.44-.62,.37,.12,.71,.41,.92,.86,.98-.63,.98-.63,1.66-1.06-.25-.39-.38-.57-.55-.73-.59-.66-1.39-1-2.67-.97l-.67,.09c-.64,.16-1.25,.5-1.61,.95-1.07,1.22-.77,3.35,.54,4.23,1.29,.97,3.18,1.19,3.42,2.09,.23,1.11-.81,1.46-1.85,1.34-.77-.16-1.19-.55-1.66-1.26q-.85,.49-1.72,.99c.21,.45,.42,.66,.77,1.05,1.64,1.67,5.75,1.58,6.49-.94,.03-.09,.23-.66,.07-1.55Zm-8.49-6.85h-2.12v5.48c0,1.17,.05,2.24-.14,2.56-.31,.64-1.11,.56-1.48,.44-.37-.18-.56-.44-.78-.81-.06-.11-.11-.19-.12-.19l-1.72,1.06c.29,.59,.71,1.1,1.25,1.43,.81,.49,1.89,.63,3.03,.37,.74-.22,1.38-.66,1.71-1.34,.48-.89,.38-1.97,.37-3.16,.01-1.94,0-3.89,0-5.84Z"/></svg>