<?xml version="1.0" encoding="UTF-8"?><svg id="a" xmlns="http://www.w3.org/2000/svg" viewBox="0 0 2500 724.05"><defs><style>.b{fill:#222;}</style></defs><path class="b" d="M16.27,564.59V286.37H363.65v-16.27H16.27V16.27H385.62V0H0V580.86H388.87v-16.27H16.27ZM702.08,162.71l-143.99,189.56-140.75-189.55h-21.15l152.13,201.76-166.78,216.39h19.53l157.01-204.2,157.83,204.2h20.34l-167.59-216.4,152.94-201.76h-19.52Zm82.98,561.35V463.72h1.63c9.77,37.96,29.02,68.47,57.76,91.52,28.75,23.05,65.35,34.58,109.82,34.58,28.75,0,54.24-5.83,76.47-17.49s40.81-27.52,55.73-47.59c14.91-20.07,26.3-43.39,34.17-69.97,7.86-26.57,11.8-54.51,11.8-83.79,0-31.46-4.07-60.48-12.21-87.05-8.13-26.58-19.93-49.63-35.39-69.15-15.46-19.53-34.17-34.72-56.14-45.56-21.96-10.85-46.78-16.27-74.44-16.27-21.15,0-40.81,3.12-58.98,9.36-18.17,6.24-34.3,15.05-48.4,26.44-14.18,11.48-26.53,25.06-36.61,40.27-10.3,15.46-18.17,32.41-23.59,50.85h-1.63v-117.16h-16.27V724.05h16.27Zm169.21-149.69c-50.98,0-91.93-17.49-122.84-52.47-30.91-34.98-46.37-85.29-46.37-150.91,0-27.12,3.8-52.88,11.39-77.29,7.59-24.4,18.57-45.83,32.94-64.27,14.38-18.44,32.14-33.09,53.29-43.93,21.15-10.85,45.02-16.27,71.59-16.27s50.85,5.42,71.19,16.27c20.34,10.84,37.15,25.63,50.44,44.34s23.32,40.14,30.1,64.27c6.78,24.14,10.17,49.76,10.17,76.88,0,24.41-3.12,48.68-9.36,72.81-6.24,24.14-15.86,45.83-28.88,65.09-13.01,19.25-29.69,34.98-50.03,47.18-20.34,12.2-44.88,18.3-73.63,18.3h0Zm267.66,6.51v-236.74c0-22.78,3.25-45.02,9.77-66.71,6.5-21.69,16.54-40.82,30.1-57.35,13.56-16.54,30.78-29.56,51.66-39.05,20.88-9.49,45.69-13.42,74.44-11.8v-16.27c-24.95-.54-46.78,2.17-65.49,8.13-18.72,5.97-34.85,14.1-48.41,24.41-13.56,10.3-24.4,22.37-32.54,36.2-8.13,13.81-14.16,28.75-17.9,44.34h-1.63v-103.32h-16.27v418.16h16.27Zm186.3-205.83h349.82c1.09-28.75-1.76-56.4-8.54-82.98-6.78-26.58-17.63-50.17-32.54-70.78-14.92-20.61-34.17-37.15-57.76-49.63s-51.66-18.71-84.2-18.71c-23.33,0-46.1,4.88-68.34,14.65-22.24,9.76-41.76,23.99-58.57,42.71s-30.37,41.63-40.67,68.75c-10.3,27.11-15.46,58.03-15.46,92.74,0,30.91,3.53,59.79,10.58,86.64s17.9,50.17,32.54,69.97c14.65,19.79,33.5,35.12,56.54,45.96,23.05,10.85,50.84,16,83.39,15.46,47.72,0,87.86-13.43,120.4-40.27,32.54-26.85,51.8-64.68,57.76-113.49h-16.27c-7.05,46.1-25.09,80.68-54.1,103.73-29.02,23.05-65.49,34.58-109.42,34.58-29.83,0-55.05-5.15-75.66-15.45-20.61-10.3-37.42-24.41-50.44-42.3-13.01-17.9-22.64-38.92-28.88-63.05-6.24-24.13-9.63-50.3-10.17-78.51h0Zm333.55-16.27h-333.54c1.62-29.29,7.05-55.59,16.26-78.91,9.22-23.33,21.29-43.26,36.21-59.79,14.91-16.54,32.27-29.15,52.07-37.83,19.79-8.68,41.08-13.02,63.86-13.02,27.12,0,50.98,5.02,71.59,15.05,20.61,10.03,37.83,23.73,51.66,41.08,13.83,17.35,24.27,37.56,31.32,60.61,7.05,23.05,10.58,47.32,10.58,72.81h0Zm353.89-72.4h16.27c0-46.65-13.56-80.54-40.67-101.69-27.12-21.15-64-31.73-110.64-31.73-26.04,0-48,3.26-65.9,9.77-17.9,6.5-32.54,14.91-43.93,25.21-11.39,10.3-19.52,21.69-24.4,34.17s-7.32,24.41-7.32,35.8c0,22.78,4.07,40.95,12.21,54.51,8.13,13.56,20.88,24.14,38.23,31.73,11.93,5.42,25.49,10.3,40.68,14.65,15.19,4.34,32.81,8.95,52.88,13.82,17.9,4.35,35.52,8.68,52.88,13.02,17.35,4.34,32.68,10.17,45.96,17.49,13.29,7.32,24.14,16.68,32.54,28.07,8.4,11.39,12.61,26.3,12.61,44.74s-4.2,33.09-12.61,45.56c-8.34,12.41-19.31,22.83-32.13,30.51-13.02,7.86-27.53,13.55-43.53,17.08-16,3.53-31.59,5.29-46.78,5.29-49.36,0-87.19-10.98-113.49-32.94-26.3-21.97-39.45-56.54-39.45-103.73h-16.27c0,52.61,14.24,91.12,42.71,115.53,28.48,24.4,70.64,36.61,126.51,36.61,17.9,0,35.93-2.04,54.1-6.1,18.16-4.07,34.44-10.71,48.81-19.93,14.25-9.09,26.22-21.34,34.98-35.79,8.95-14.65,13.43-32.54,13.43-53.7s-3.94-36.34-11.8-48.81c-7.87-12.47-18.17-22.78-30.92-30.91-12.74-8.13-27.11-14.51-43.12-19.12-16.09-4.64-32.23-9.11-48.41-13.43-19.91-5.22-39.84-10.38-59.79-15.45-17.08-4.34-32.94-9.49-47.59-15.46-14.1-5.97-25.36-14.51-33.76-25.63-8.41-11.12-12.61-26.98-12.61-47.59,0-3.79,1.08-10.58,3.25-20.34,2.17-9.77,7.32-19.66,15.46-29.7,8.13-10.03,20.61-18.98,37.42-26.85,16.81-7.86,39.86-11.8,69.15-11.8,20.07,0,38.37,2.17,54.91,6.51,16.54,4.34,30.78,11.25,42.71,20.75,11.93,9.49,21.15,21.56,27.66,36.2,6.51,14.65,9.77,32.54,9.77,53.7h0Zm376.66,0h16.27c0-46.65-13.55-80.54-40.67-101.69s-64-31.73-110.64-31.73c-26.03,0-48,3.26-65.89,9.77-17.9,6.5-32.54,14.91-43.93,25.21-11.39,10.3-19.53,21.69-24.41,34.17s-7.32,24.41-7.32,35.8c0,22.78,4.07,40.95,12.21,54.51,8.13,13.56,20.88,24.14,38.23,31.73,11.93,5.42,25.49,10.3,40.67,14.65,15.19,4.34,32.81,8.95,52.88,13.82,17.9,4.35,35.53,8.68,52.88,13.02,17.36,4.34,32.68,10.17,45.97,17.49,13.29,7.32,24.14,16.68,32.54,28.07,8.41,11.39,12.61,26.3,12.61,44.74s-4.2,33.09-12.61,45.56c-8.34,12.41-19.31,22.83-32.13,30.51-13.02,7.86-27.53,13.55-43.53,17.08-16,3.53-31.59,5.29-46.78,5.29-49.36,0-87.18-10.98-113.49-32.94-26.31-21.97-39.46-56.54-39.46-103.73h-16.27c0,52.61,14.23,91.12,42.71,115.53,28.47,24.4,70.64,36.61,126.5,36.61,17.9,0,35.93-2.04,54.1-6.1,18.16-4.07,34.44-10.71,48.81-19.93,14.25-9.09,26.22-21.34,34.98-35.79,8.95-14.65,13.42-32.54,13.42-53.7s-3.93-36.34-11.8-48.81c-7.86-12.47-18.16-22.78-30.91-30.91-12.74-8.13-27.12-14.51-43.12-19.12-16.09-4.64-32.23-9.11-48.41-13.43-19.91-5.22-39.84-10.38-59.79-15.45-17.08-4.34-32.95-9.49-47.59-15.46-14.1-5.97-25.36-14.51-33.76-25.63-8.41-11.12-12.61-26.98-12.61-47.59,0-3.79,1.08-10.58,3.26-20.34,2.17-9.77,7.32-19.66,15.45-29.7,8.13-10.03,20.61-18.98,37.42-26.85,16.82-7.86,39.86-11.8,69.16-11.8,20.07,0,38.37,2.17,54.91,6.51,16.54,4.34,30.78,11.25,42.71,20.75s21.15,21.56,27.66,36.2c6.51,14.65,9.77,32.54,9.77,53.7h0Z"/></svg>