<?xml version="1.0" encoding="UTF-8"?><svg id="a" xmlns="http://www.w3.org/2000/svg" xmlns:xlink="http://www.w3.org/1999/xlink" viewBox="0 0 29.08 25.57"><defs><style>.c{fill:url(#b);fill-rule:evenodd;}.d{letter-spacing:.02em;}.e{letter-spacing:-.06em;}.f{fill:#52a5b3;font-family:Roboto-Medium, Roboto;font-size:7.47px;}</style><linearGradient id="b" x1=".93" y1="-367.18" x2="28.15" y2="-412.55" gradientTransform="translate(0 -381.73) scale(1 -1)" gradientUnits="userSpaceOnUse"><stop offset="0" stop-color="#2683af"/><stop offset="1" stop-color="#77c9b3"/></linearGradient></defs><path class="c" d="M7.66,5.43C8.58,1.81,10.87,0,14.54,0c5.5,0,6.19,4.07,8.94,4.75,1.83,.45,3.44-.23,4.81-2.03-.92,3.62-3.21,5.43-6.88,5.43-5.5,0-6.19-4.07-8.94-4.75-1.83-.45-3.44,.23-4.81,2.03ZM.78,13.56c.92-3.62,3.21-5.43,6.88-5.43,5.5,0,6.19,4.07,8.94,4.75,1.83,.45,3.44-.23,4.81-2.03-.92,3.62-3.21,5.43-6.88,5.43-5.5,0-6.19-4.07-8.94-4.75-1.83-.45-3.44,.23-4.81,2.03Z"/><text class="f" transform="translate(0 23.54)"><tspan class="e" x="0" y="0">T</tspan><tspan class="d" x="4.1" y="0">ailwind</tspan></text></svg>