<?xml version="1.0" encoding="UTF-8"?><svg id="a" xmlns="http://www.w3.org/2000/svg" viewBox="0 0 16.07 22.68"><defs><style>.b{fill:#ebebeb;}.c{fill:#fff;}.d{fill:#f1672a;}.e{fill:#e44f26;}</style></defs><path class="e" d="M1.46,20.86L0,4.46H16.07l-1.46,16.4-6.58,1.82-6.56-1.82Z"/><path class="d" d="M8.03,21.28l5.32-1.47,1.25-14.01h-6.57v15.49Z"/><path class="b" d="M8.03,11.88h-2.66l-.18-2.06h2.85v-2.01H2.99l.05,.54,.49,5.54h4.5v-2.01Zm0,5.22h0l-2.24-.6-.14-1.6H3.62l.28,3.16,4.12,1.14h0v-2.1Z"/><path class="c" d="M1.49,0h1.02V1.01h.94V0h1.02V3.06h-1.02v-1.02h-.93v1.02H1.49V0ZM5.82,1.01h-.9V0h2.82V1.01h-.9V3.06h-1.02V1.01Zm2.37-1.01h1.07l.66,1.07,.65-1.07h1.07V3.06h-1.02V1.54l-.7,1.09h-.02l-.7-1.09v1.52h-1V0h0Zm3.95,0h1.02V2.05h1.44v1.01h-2.46V0Z"/><path class="c" d="M8.03,11.88v2.01h2.48l-.23,2.61-2.24,.61v2.09l4.12-1.14,.03-.34,.47-5.29,.05-.54h-4.68Zm0-4.07v2.01h4.86l.04-.45,.09-1.02,.05-.54h-5.04Z"/></svg>